<svg width="166" height="163" viewBox="0 0 166 163" fill="none" xmlns="http://www.w3.org/2000/svg">
<path d="M65.9037 52.5289V77.8972H59.7238V62.0341L54.2321 77.8972H48.8844L43.3551 61.9965V77.8963H37.1761V52.5281H44.7287L51.6307 70.1997L58.3887 52.5289H65.9037Z" fill="url(#paint0_linear)"/>
<path d="M80.6839 52.3489V77.897H74.5049V52.3489H80.6839Z" fill="url(#paint1_linear)"/>
<path d="M96.9087 73.1633H105.147V77.898H90.7297V52.3499H96.9087V73.1633Z" fill="url(#paint2_linear)"/>
<path d="M121.48 64.8528L131.78 77.8989H124.299L115.626 66.4429V77.898H109.448V52.3499H115.626V63.5875L124.37 52.3507H131.78L121.48 64.8528Z" fill="url(#paint3_linear)"/>
<path d="M104.808 90.608H67.2519V85.8367H104.808V90.608Z" fill="url(#paint4_linear)"/>
<path d="M58.2017 114.302H55.7619L51.6795 108.109V114.302H49.2397V104.212H51.6795L55.7619 110.463V104.212H58.2017V114.302Z" fill="url(#paint5_linear)"/>
<path fill-rule="evenodd" clip-rule="evenodd" d="M67.2205 110.606L65.9647 106.896L64.6951 110.606H67.2205ZM67.8492 112.461H64.0672L63.4385 114.302H60.8694L64.565 104.284H67.3776L71.074 114.302H68.4753L67.8492 112.461Z" fill="url(#paint6_linear)"/>
<path d="M80.9765 104.212V106.153H78.2363V114.302H75.7825V106.153H73.072V104.212H80.9765Z" fill="url(#paint7_linear)"/>
<path d="M86.0866 104.212V110.035C86.0866 110.701 86.236 111.21 86.5363 111.562C86.8367 111.914 87.2707 112.09 87.8418 112.09C88.4129 112.09 88.8487 111.914 89.1473 111.562C89.4468 111.21 89.5961 110.701 89.5961 110.035V104.212H92.0377V110.035C92.0377 110.986 91.8517 111.788 91.4806 112.44C91.1095 113.091 90.603 113.582 89.9612 113.909C89.3193 114.238 88.5928 114.402 87.7851 114.402C86.9764 114.402 86.2622 114.24 85.6448 113.916C85.0265 113.593 84.5401 113.103 84.1891 112.447C83.8363 111.791 83.6608 110.986 83.6608 110.035V104.212H86.0866Z" fill="url(#paint8_linear)"/>
<path fill-rule="evenodd" clip-rule="evenodd" d="M97.8168 108.822H99.3301C99.8148 108.822 100.172 108.715 100.4 108.501C100.629 108.287 100.743 107.971 100.743 107.552C100.743 107.152 100.626 106.838 100.394 106.61C100.16 106.382 99.8051 106.267 99.3301 106.267H97.8168V108.822ZM100.557 114.302L98.3739 110.492H97.8168V114.302H95.377V104.212H99.544C100.343 104.212 101.018 104.351 101.57 104.626C102.123 104.903 102.537 105.281 102.812 105.761C103.088 106.242 103.226 106.791 103.226 107.409C103.226 108.143 103.023 108.765 102.62 109.279C102.214 109.792 101.628 110.144 100.857 110.335L103.254 114.302H100.557Z" fill="url(#paint9_linear)"/>
<path fill-rule="evenodd" clip-rule="evenodd" d="M111.355 110.606L110.098 106.896L108.828 110.606H111.355ZM111.982 112.461H108.2L107.573 114.302H105.003L108.699 104.284H111.512L115.207 114.302H112.608L111.982 112.461Z" fill="url(#paint10_linear)"/>
<path d="M119.764 112.432H123.018V114.302H117.324V104.212H119.764V112.432Z" fill="url(#paint11_linear)"/>
<path d="M67.362 123.621V121.337H71.4435V131.427H68.8753V123.621H67.362Z" fill="url(#paint12_linear)"/>
<path fill-rule="evenodd" clip-rule="evenodd" d="M80.1915 126.275C80.1915 125.371 80.085 124.679 79.871 124.199C79.6571 123.718 79.2353 123.478 78.6075 123.478C77.97 123.478 77.5421 123.721 77.3238 124.206C77.1046 124.692 76.9955 125.381 76.9955 126.275C76.9955 127.179 77.1046 127.876 77.3238 128.366C77.5421 128.856 77.97 129.101 78.6075 129.101C79.2353 129.101 79.6571 128.856 79.871 128.366C80.085 127.876 80.1915 127.179 80.1915 126.275ZM74.5976 126.275C74.5976 124.705 74.9163 123.462 75.5529 122.544C76.1904 121.625 77.2094 121.167 78.6075 121.167C79.9976 121.167 81.0132 121.625 81.655 122.544C82.2969 123.462 82.6173 124.705 82.6173 126.275C82.6173 127.855 82.2969 129.105 81.655 130.028C81.0132 130.951 79.9976 131.412 78.6075 131.412C77.2094 131.412 76.1904 130.951 75.5529 130.028C74.9163 129.105 74.5976 127.855 74.5976 126.275Z" fill="url(#paint13_linear)"/>
<path fill-rule="evenodd" clip-rule="evenodd" d="M91.0928 126.275C91.0928 125.371 90.9863 124.679 90.7724 124.199C90.5584 123.718 90.1367 123.478 89.5088 123.478C88.8714 123.478 88.4434 123.721 88.2251 124.206C88.0068 124.692 87.8977 125.381 87.8977 126.275C87.8977 127.179 88.0068 127.876 88.2251 128.366C88.4434 128.856 88.8714 129.101 89.5088 129.101C90.1367 129.101 90.5584 128.856 90.7724 128.366C90.9863 127.876 91.0928 127.179 91.0928 126.275ZM85.4989 126.275C85.4989 124.705 85.8177 123.462 86.4551 122.544C87.0926 121.625 88.1116 121.167 89.5088 121.167C90.899 121.167 91.9146 121.625 92.5564 122.544C93.1982 123.462 93.5187 124.705 93.5187 126.275C93.5187 127.855 93.1982 129.105 92.5564 130.028C91.9146 130.951 90.899 131.412 89.5088 131.412C88.1116 131.412 87.0926 130.951 86.4551 130.028C85.8177 129.105 85.4989 127.855 85.4989 126.275Z" fill="url(#paint14_linear)"/>
<path fill-rule="evenodd" clip-rule="evenodd" d="M103.994 129.864C104.128 130.031 104.313 130.114 104.551 130.114C104.779 130.114 104.962 130.031 105.1 129.864C105.238 129.698 105.307 129.462 105.307 129.158C105.307 128.863 105.238 128.632 105.1 128.466C104.962 128.3 104.779 128.215 104.551 128.215C104.313 128.215 104.128 128.3 103.994 128.466C103.861 128.632 103.796 128.863 103.796 129.158C103.796 129.462 103.861 129.698 103.994 129.864ZM106.263 127.389C106.702 127.807 106.92 128.397 106.92 129.158C106.92 129.919 106.702 130.511 106.263 130.934C105.826 131.357 105.255 131.57 104.551 131.57C103.857 131.57 103.288 131.357 102.846 130.934C102.404 130.511 102.182 129.919 102.182 129.158C102.182 128.397 102.404 127.807 102.846 127.389C103.288 126.969 103.857 126.761 104.551 126.761C105.255 126.761 105.826 126.969 106.263 127.389ZM97.9862 124.255C98.1198 124.422 98.2997 124.505 98.5293 124.505C98.766 124.505 98.9572 124.422 99.1005 124.255C99.2419 124.089 99.3144 123.859 99.3144 123.564C99.3144 123.269 99.2419 123.038 99.1005 122.872C98.9572 122.705 98.766 122.622 98.5293 122.622C98.2997 122.622 98.1198 122.705 97.9862 122.872C97.8535 123.038 97.7871 123.269 97.7871 123.564C97.7871 123.859 97.8535 124.089 97.9862 124.255ZM105.478 121.309L99.9702 131.427H97.615L103.124 121.309H105.478ZM100.263 121.795C100.705 122.213 100.926 122.802 100.926 123.564C100.926 124.325 100.705 124.915 100.263 125.334C99.8209 125.752 99.2515 125.962 98.5573 125.962C97.8447 125.962 97.2658 125.752 96.8239 125.334C96.3803 124.915 96.1603 124.325 96.1603 123.564C96.1603 122.802 96.3803 122.213 96.8239 121.795C97.2658 121.375 97.8447 121.167 98.5573 121.167C99.2515 121.167 99.8209 121.375 100.263 121.795Z" fill="url(#paint15_linear)"/>
<path fill-rule="evenodd" clip-rule="evenodd" d="M27.815 133.664C27.2736 133.627 26.7593 133.834 26.2711 134.286C25.7839 134.738 25.5402 135.237 25.5367 135.781C25.5367 136.324 25.7926 136.873 26.3096 137.429L27.0212 138.195L30.1151 135.322L29.4043 134.555C28.8865 134 28.3573 133.703 27.815 133.664ZM27.1322 133.195C27.5627 133.093 28.0001 133.128 28.4402 133.299C28.8812 133.47 29.3056 133.775 29.7134 134.215L30.8198 135.406L27.0597 138.899L25.9533 137.707C25.3368 137.045 25.0259 136.378 25.0259 135.71C25.0233 135.041 25.3176 134.434 25.9035 133.889C26.2912 133.529 26.7008 133.298 27.1322 133.195Z" fill="url(#paint16_linear)"/>
<path d="M21.1375 131.402L22.6866 130.24L21.4273 128.56L21.7478 128.32L23.007 130L24.5736 128.825L23.1756 126.962L23.5144 126.71L25.2373 129.007L21.1305 132.085L19.4076 129.788L19.7402 129.54L21.1375 131.402Z" fill="url(#paint17_linear)"/>
<path d="M19.1796 119.923L19.4582 120.389L17.2926 125.119L20.9715 122.917L21.2483 123.381L16.8525 126.014L16.5739 125.549L18.7456 120.815L15.0623 123.02L14.782 122.556L19.1796 119.923Z" fill="url(#paint18_linear)"/>
<path d="M10.4892 113.46L15.079 111.419L15.2955 111.907L11.4524 113.618L16.0369 113.574L16.2333 114.013L13.1456 117.392L16.9782 115.687L17.1974 116.182L12.6103 118.225L12.351 117.645L15.5566 114.048L10.7442 114.032L10.4892 113.46Z" fill="url(#paint19_linear)"/>
<path fill-rule="evenodd" clip-rule="evenodd" d="M11.18 105.138L8.85106 106.969L11.8122 107.178L11.18 105.138ZM11.5231 104.863L12.247 107.203L13.5892 107.299L13.7586 107.846L8.37862 107.434L8.20135 106.858L12.4034 103.479L12.5763 104.032L11.5231 104.863Z" fill="url(#paint20_linear)"/>
<path fill-rule="evenodd" clip-rule="evenodd" d="M8.90956 99.7008L8.70345 98.652C8.53405 97.8032 8.10003 97.4496 7.39883 97.5876C6.6854 97.7299 6.41296 98.2259 6.57975 99.0729L6.78846 100.122L8.90956 99.7008ZM10.9319 96.9099L9.11822 98.7717L9.2885 99.6266L11.3877 99.2083L11.4925 99.7401L6.45839 100.74L6.13876 99.1227C6.01826 98.5289 6.06456 98.0591 6.27414 97.7142C6.48371 97.3693 6.81288 97.1518 7.26521 97.0627C7.68436 96.9798 8.04065 97.0374 8.33842 97.2339C8.63532 97.4321 8.85367 97.7613 8.99601 98.2207L10.8123 96.3118L10.9319 96.9099Z" fill="url(#paint21_linear)"/>
<path d="M7.58834 91.5973L9.91111 88.8213L9.97485 89.4832L7.80052 92.0531L10.1993 91.8235L10.2499 92.3631L5.14154 92.8521L5.08824 92.3125L7.48878 92.0828L4.86556 89.9722L4.80182 89.3112L7.58834 91.5973Z" fill="url(#paint22_linear)"/>
<path d="M3.89368 84.0614C3.56447 83.8649 3.3095 83.6003 3.12437 83.2685C2.941 82.9358 2.85365 82.5751 2.86151 82.1857C2.8685 81.7857 2.97067 81.4242 3.16803 81.0993C3.3645 80.7754 3.6308 80.5221 3.96787 80.3379C4.30406 80.1536 4.6726 80.0663 5.07167 80.0751C5.46113 80.082 5.81828 80.1842 6.14487 80.3807C6.46797 80.5763 6.72034 80.8409 6.89935 81.1736C7.07749 81.5045 7.1639 81.8713 7.15604 82.2704C7.14818 82.6607 7.04864 83.0178 6.85565 83.3418C6.66529 83.6667 6.40158 83.9208 6.07063 84.1041C5.73793 84.2875 5.37818 84.3766 4.98697 84.3679C4.58703 84.3609 4.22376 84.2587 3.89368 84.0614Z" fill="url(#paint23_linear)"/>
<path fill-rule="evenodd" clip-rule="evenodd" d="M7.96126 70.5718C7.54298 69.971 6.88367 69.6016 5.98162 69.4611C5.07957 69.3205 4.33734 69.4707 3.75926 69.9151C3.17943 70.3596 2.81527 71.0521 2.66857 71.9917L2.49045 73.133L8.18564 74.0228L8.36467 72.8798C8.51225 71.9419 8.37692 71.1708 7.96126 70.5718ZM8.86679 68.056C9.55752 68.5913 10.0517 69.2855 10.353 70.1361C10.6534 70.9875 10.7198 71.9437 10.5547 73.0064L9.96793 76.7709L0 75.2148L0.587662 71.4503C0.754449 70.3788 1.10461 69.4855 1.64077 68.7695C2.17607 68.0543 2.85195 67.5452 3.66929 67.2448C4.48664 66.9435 5.38433 66.8684 6.36147 67.0221C7.33949 67.1749 8.17344 67.519 8.86679 68.056Z" fill="url(#paint24_linear)"/>
<path fill-rule="evenodd" clip-rule="evenodd" d="M9.98189 59.4677L6.06631 59.5873L9.24575 61.8831L9.98189 59.4677ZM11.9405 59.4075L10.8368 63.0253L12.4156 64.1631L11.6664 66.6204L3.1611 60.1628L3.98018 57.4732L14.6406 56.8594L13.8826 59.3446L11.9405 59.4075Z" fill="url(#paint25_linear)"/>
<path d="M7.36395 48.6055L16.5163 52.852L15.4885 55.0656L6.3353 50.82L7.36395 48.6055Z" fill="url(#paint26_linear)"/>
<path d="M20.0677 28.9036L23.2594 35.789L25.9132 37.8411L24.4103 39.7823L21.7566 37.7311L14.2913 36.3776L15.9993 34.1648L20.4388 35.1428L18.3745 31.0936L20.0677 28.9036Z" fill="url(#paint27_linear)"/>
<path d="M35.1659 15.3379L36.3483 16.8765L33.0667 19.3967L34.4132 21.151L36.9482 19.2046L38.0799 20.676L35.5432 22.6233L38.031 25.8603L36.0942 27.3466L29.9492 19.3452L35.1659 15.3379Z" fill="url(#paint28_linear)"/>
<path fill-rule="evenodd" clip-rule="evenodd" d="M46.5301 15.8837L43.6187 13.264L44.3295 17.1211L46.5301 15.8837ZM47.9867 17.1936L44.6893 19.0466L45.0438 20.9589L42.804 22.2173L41.1213 11.673L43.5724 10.295L51.6996 17.2198L49.4353 18.4921L47.9867 17.1936Z" fill="url(#paint29_linear)"/>
<path fill-rule="evenodd" clip-rule="evenodd" d="M54.1997 10.3474L55.6161 9.81303C56.0702 9.64275 56.367 9.41658 56.505 9.13628C56.643 8.85422 56.6378 8.5189 56.4902 8.12681C56.3487 7.75394 56.1304 7.50071 55.83 7.36885C55.5331 7.23699 55.1603 7.2562 54.7158 7.42386L53.3003 7.95741L54.1997 10.3474ZM58.6977 14.5084L55.3113 11.7141L54.7891 11.9097L56.133 15.4751L53.8504 16.3361L50.2911 6.89469L54.1901 5.42591C54.9384 5.14298 55.6187 5.03383 56.2317 5.09758C56.8456 5.16045 57.3678 5.36914 57.7957 5.72106C58.2218 6.07384 58.5431 6.53927 58.7623 7.11735C59.0208 7.80371 59.0514 8.45689 58.8549 9.08038C58.6575 9.70387 58.2323 10.2409 57.5782 10.6897L61.2222 13.5566L58.6977 14.5084Z" fill="url(#paint30_linear)"/>
<path d="M72.7795 0.743652L74.7084 10.5736L72.3132 11.0434L71.1064 4.89674L70.1843 11.4608L68.1121 11.8686L64.7597 6.128L65.9691 12.2887L63.5747 12.7585L61.6458 2.92848L64.572 2.35477L68.5906 8.67697L69.8655 1.31475L72.7795 0.743652Z" fill="url(#paint31_linear)"/>
<path d="M78.1481 4.58045C78.3245 4.23902 78.5733 3.96657 78.8938 3.76398C79.2125 3.55965 79.568 3.44787 79.9574 3.43215C80.3556 3.41469 80.7241 3.49503 81.0612 3.67055C81.3965 3.84694 81.6646 4.09756 81.8707 4.4224C82.0741 4.74724 82.185 5.10876 82.2034 5.5087C82.2182 5.89816 82.1388 6.26055 81.9632 6.59587C81.786 6.93207 81.538 7.20015 81.2184 7.40012C80.8979 7.59835 80.5372 7.70662 80.1408 7.72321C79.7496 7.7398 79.3863 7.66296 79.051 7.49181C78.7148 7.31978 78.4441 7.07441 78.2407 6.75481C78.0381 6.4352 77.9272 6.0798 77.9114 5.69034C77.8931 5.29127 77.9734 4.92101 78.1481 4.58045Z" fill="url(#paint32_linear)"/>
<path fill-rule="evenodd" clip-rule="evenodd" d="M92.3355 7.94947C92.5564 7.78879 92.6857 7.54079 92.7197 7.20373C92.7564 6.85531 92.6831 6.58024 92.4988 6.37765C92.3154 6.17593 91.9932 6.05019 91.5312 6.00217L90.5156 5.8965L90.2939 8.01147L91.3129 8.11713C91.7731 8.16516 92.1137 8.10927 92.3355 7.94947ZM90.2493 8.44459L90.0266 10.5735L89.487 10.5185L90.0214 5.41187L91.6238 5.58039C92.2246 5.64327 92.6612 5.82228 92.9293 6.11918C93.1974 6.41608 93.3083 6.79506 93.2585 7.25874C93.2096 7.73203 93.0184 8.0822 92.6857 8.3075C92.3521 8.53454 91.8945 8.6175 91.3129 8.55637L90.2493 8.44459Z" fill="url(#paint33_linear)"/>
<path fill-rule="evenodd" clip-rule="evenodd" d="M97.8334 9.13121L98.8804 9.34865C99.7266 9.52591 100.223 9.26481 100.368 8.56536C100.517 7.85367 100.168 7.40832 99.3205 7.2328L98.2735 7.01537L97.8334 9.13121ZM99.613 12.0819L98.6062 9.68658L97.7539 9.51019L97.32 11.6042L96.7881 11.4942L97.8334 6.4696L99.4471 6.80491C100.041 6.92891 100.457 7.15334 100.691 7.4808C100.927 7.80739 100.998 8.19685 100.905 8.64831C100.818 9.06572 100.626 9.37309 100.327 9.56782C100.029 9.7643 99.641 9.83765 99.1633 9.78788L100.21 12.2067L99.613 12.0819Z" fill="url(#paint34_linear)"/>
<path d="M105.27 8.67629L104.724 10.5328L106.738 11.1257L106.624 11.5091L104.611 10.917L104.058 12.7953L106.292 13.4529L106.172 13.8572L103.418 13.0477L104.867 8.12354L107.621 8.93389L107.504 9.33121L105.27 8.67629Z" fill="url(#paint35_linear)"/>
<path d="M115.365 12.0318L113.467 16.6818L112.971 16.48L114.562 12.5846L111.283 15.7919L110.838 15.6094L110.726 11.0346L109.142 14.917L108.64 14.7126L110.538 10.0609L111.124 10.3011L111.303 15.1143L114.785 11.7943L115.365 12.0318Z" fill="url(#paint36_linear)"/>
<path d="M120.163 14.3023L117.771 18.844L117.292 18.5916L119.684 14.0508L120.163 14.3023Z" fill="url(#paint37_linear)"/>
<path d="M124.746 16.9245L123.06 19.5372C122.763 19.9974 122.651 20.4044 122.721 20.7572C122.796 21.1108 123.014 21.4051 123.383 21.6426C123.75 21.8793 124.107 21.9561 124.455 21.8749C124.803 21.7919 125.123 21.5212 125.421 21.0593L127.105 18.4475L127.556 18.7374L125.871 21.3501C125.492 21.9325 125.064 22.274 124.582 22.3726C124.101 22.4722 123.611 22.3622 123.116 22.0426C122.62 21.7212 122.319 21.3221 122.211 20.8419C122.101 20.3625 122.235 19.8307 122.61 19.2473L124.298 16.6355L124.746 16.9245Z" fill="url(#paint38_linear)"/>
<path d="M135.395 24.9339L132.198 28.8075L131.785 28.4678L134.464 25.2229L130.379 27.3073L130.008 27.0008L131.265 22.5997L128.596 25.835L128.177 25.4901L131.374 21.6165L131.862 22.0181L130.6 26.6672L134.913 24.5357L135.395 24.9339Z" fill="url(#paint39_linear)"/>
<path fill-rule="evenodd" clip-rule="evenodd" d="M14.6449 44.7413L15.381 43.4184C15.6168 42.9949 15.6971 42.6299 15.622 42.3269C15.5452 42.023 15.3243 41.7697 14.9584 41.5663C14.6091 41.3733 14.2782 41.3209 13.9647 41.4143C13.6529 41.506 13.3813 41.7619 13.1491 42.1767L12.4147 43.4987L14.6449 44.7413ZM20.7671 45.0094L16.3765 45.0653L16.105 45.5526L19.4346 47.4047L18.2487 49.5371L9.4317 44.6322L11.4576 40.9917C11.8462 40.2922 12.2942 39.7692 12.8033 39.4216C13.3124 39.0732 13.8459 38.8951 14.3995 38.8872C14.9532 38.8802 15.4989 39.0278 16.0395 39.3273C16.6804 39.6845 17.1266 40.163 17.379 40.7664C17.6314 41.3698 17.6549 42.0535 17.4454 42.8194L22.0787 42.6526L20.7671 45.0094Z" fill="url(#paint40_linear)"/>
<path d="M38.837 145.706L38.2667 142.131L38.8073 142.518L39.3208 145.844L40.7214 143.885L41.1615 144.2L38.1785 148.377L37.7367 148.061L39.1382 146.1L35.8243 146.695L35.2847 146.309L38.837 145.706Z" fill="url(#paint41_linear)"/>
<path fill-rule="evenodd" clip-rule="evenodd" d="M142.18 35.0818C142.451 35.1194 142.716 35.0286 142.974 34.8085C143.242 34.5824 143.378 34.3326 143.385 34.0602C143.392 33.7868 143.246 33.4742 142.947 33.1206L142.285 32.3416L140.663 33.7179L141.325 34.4977C141.626 34.8496 141.91 35.0443 142.18 35.0818ZM140.33 34.0008L138.698 35.3857L138.347 34.9727L142.26 31.6492L143.304 32.8778C143.695 33.3389 143.886 33.7703 143.874 34.1693C143.864 34.5693 143.68 34.9212 143.325 35.2224C142.962 35.5298 142.584 35.6503 142.187 35.5831C141.789 35.5176 141.402 35.26 141.023 34.8146L140.33 34.0008Z" fill="url(#paint42_linear)"/>
<path fill-rule="evenodd" clip-rule="evenodd" d="M145.335 39.7273L145.942 40.6066C146.433 41.3183 146.974 41.472 147.561 41.0659C148.159 40.6529 148.213 40.0905 147.722 39.3789L147.115 38.4986L145.335 39.7273ZM144.588 43.0901L145.512 40.6634L145.019 39.9456L143.258 41.162L142.947 40.7158L147.174 37.8L148.11 39.1579C148.453 39.6565 148.598 40.1054 148.544 40.5044C148.489 40.9044 148.271 41.2345 147.891 41.4956C147.54 41.7392 147.189 41.8283 146.838 41.7645C146.487 41.7008 146.158 41.4851 145.844 41.1183L144.934 43.5931L144.588 43.0901Z" fill="url(#paint43_linear)"/>
<path fill-rule="evenodd" clip-rule="evenodd" d="M151.584 46.0311C151.282 45.839 150.945 45.7395 150.572 45.7351C150.2 45.7299 149.825 45.8294 149.443 46.0346C149.064 46.239 148.773 46.4975 148.572 46.8109C148.372 47.1244 148.269 47.4606 148.263 47.8187C148.257 48.1767 148.347 48.5286 148.532 48.8735C148.718 49.2176 148.963 49.4874 149.264 49.6795C149.566 49.8725 149.903 49.972 150.275 49.9773C150.647 49.9825 151.024 49.883 151.404 49.6778C151.784 49.4734 152.075 49.215 152.275 48.9015C152.475 48.588 152.58 48.2518 152.586 47.8937C152.592 47.5366 152.501 47.1847 152.315 46.8389C152.131 46.494 151.887 46.2241 151.584 46.0311ZM153.072 47.9557C153.066 48.4116 152.94 48.8334 152.697 49.2219C152.452 49.6097 152.109 49.9231 151.664 50.1624C151.219 50.4017 150.767 50.5152 150.308 50.5056C149.848 50.496 149.425 50.3685 149.04 50.1249C148.656 49.8812 148.346 49.5407 148.11 49.1006C147.873 48.6622 147.759 48.2142 147.768 47.7584C147.777 47.3034 147.904 46.8808 148.15 46.4922C148.394 46.1036 148.738 45.7893 149.185 45.55C149.627 45.3107 150.081 45.1972 150.536 45.2077C150.994 45.219 151.417 45.3465 151.801 45.5893C152.186 45.8347 152.497 46.1752 152.731 46.6145C152.968 47.0546 153.082 47.5008 153.072 47.9557Z" fill="url(#paint44_linear)"/>
<path fill-rule="evenodd" clip-rule="evenodd" d="M153.229 57.7667C153.719 57.9999 154.273 57.9964 154.892 57.7519C155.511 57.51 155.922 57.1354 156.122 56.6306C156.323 56.1242 156.284 55.519 156.006 54.8143L155.625 53.8407L151.695 55.3828L152.079 56.3565C152.355 57.062 152.737 57.5327 153.229 57.7667ZM153.695 58.4531C153.254 58.3911 152.862 58.199 152.515 57.8794C152.168 57.5589 151.884 57.1197 151.664 56.5608L151.072 55.0475L155.847 53.1709L156.44 54.6851C156.773 55.5269 156.816 56.2613 156.573 56.8839C156.329 57.5065 155.837 57.9649 155.092 58.2566C154.6 58.4505 154.133 58.516 153.695 58.4531Z" fill="url(#paint45_linear)"/>
<path d="M159.043 62.2533L156.038 63.0532C155.508 63.1937 155.151 63.419 154.966 63.729C154.785 64.0382 154.747 64.4049 154.862 64.8284C154.974 65.2502 155.185 65.548 155.499 65.72C155.81 65.8929 156.231 65.9086 156.761 65.7672L159.766 64.9673L159.903 65.4834L156.9 66.2841C156.228 66.4623 155.681 66.4265 155.259 66.175C154.834 65.9244 154.547 65.5139 154.393 64.9428C154.242 64.3744 154.287 63.874 154.531 63.447C154.773 63.0182 155.231 62.7152 155.901 62.5362L158.904 61.7363L159.043 62.2533Z" fill="url(#paint46_linear)"/>
<path d="M161.059 74.1126C160.825 74.5736 160.462 74.9281 159.966 75.1753L159.886 74.6173C160.229 74.4226 160.486 74.1457 160.655 73.7868C160.821 73.4279 160.871 73.007 160.8 72.5241C160.748 72.1556 160.613 71.8343 160.395 71.561C160.178 71.2859 159.898 71.0868 159.55 70.9628C159.204 70.837 158.817 70.8074 158.389 70.8694C157.962 70.9314 157.602 71.0728 157.306 71.2894C157.013 71.5086 156.801 71.7793 156.672 72.1032C156.543 72.429 156.505 72.7748 156.557 73.1424C156.629 73.6262 156.795 74.0156 157.059 74.3116C157.322 74.6068 157.648 74.7989 158.034 74.8862L158.115 75.4451C157.57 75.3508 157.121 75.115 156.765 74.7404C156.41 74.3649 156.184 73.8576 156.091 73.2184C156.019 72.7293 156.065 72.2779 156.231 71.8631C156.398 71.4483 156.66 71.1069 157.019 70.8379C157.38 70.569 157.81 70.3987 158.309 70.3262C158.814 70.252 159.279 70.293 159.705 70.4467C160.129 70.6004 160.476 70.8528 160.752 71.2038C161.025 71.554 161.199 71.9749 161.271 72.4621C161.364 73.1022 161.293 73.6524 161.059 74.1126Z" fill="url(#paint47_linear)"/>
<path d="M162.052 82.7216L161.638 82.7365L161.582 81.2031L156.866 81.3742L156.847 80.8407L161.562 80.6695L161.507 79.144L161.921 79.1292L162.052 82.7216Z" fill="url(#paint48_linear)"/>
<path d="M162.664 88.038C162.981 88.2537 163.221 88.5322 163.386 88.8745C163.553 89.216 163.618 89.581 163.589 89.9704C163.559 90.3678 163.435 90.724 163.22 91.0367C163.004 91.3493 162.724 91.5877 162.377 91.7518C162.032 91.916 161.659 91.9824 161.261 91.9518C160.871 91.9221 160.52 91.799 160.207 91.5851C159.895 91.3685 159.659 91.0917 159.499 90.7502C159.339 90.4079 159.276 90.0385 159.305 89.6395C159.335 89.2518 159.455 88.8999 159.666 88.5872C159.877 88.2738 160.152 88.0345 160.496 87.8712C160.837 87.7061 161.2 87.6398 161.592 87.6695C161.989 87.7 162.347 87.8232 162.664 88.038Z" fill="url(#paint49_linear)"/>
<path fill-rule="evenodd" clip-rule="evenodd" d="M162.625 99.3035C162.219 98.7315 161.578 98.3499 160.705 98.1587C159.841 97.9692 159.104 98.0478 158.491 98.3953C157.879 98.7429 157.487 99.3078 157.315 100.088C157.147 100.86 157.267 101.534 157.675 102.11C158.085 102.687 158.722 103.071 159.588 103.261C160.449 103.45 161.188 103.371 161.8 103.023C162.412 102.676 162.804 102.112 162.976 101.331C163.146 100.55 163.029 99.8754 162.625 99.3035ZM163.987 104.205C163.39 104.867 162.66 105.332 161.796 105.6C160.934 105.87 160.02 105.897 159.053 105.686C158.086 105.473 157.266 105.062 156.591 104.45C155.917 103.841 155.447 103.109 155.181 102.257C154.917 101.405 154.883 100.517 155.086 99.5986C155.289 98.6791 155.689 97.888 156.287 97.2252C156.884 96.5624 157.617 96.0952 158.486 95.8236C159.354 95.5503 160.272 95.5206 161.237 95.7337C162.204 95.9459 163.023 96.3563 163.693 96.9667C164.362 97.5762 164.83 98.3062 165.095 99.1594C165.362 100.012 165.394 100.897 165.19 101.817C164.987 102.747 164.587 103.542 163.987 104.205Z" fill="url(#paint50_linear)"/>
<path fill-rule="evenodd" clip-rule="evenodd" d="M157.408 111.46L156.856 112.868C156.681 113.322 156.65 113.692 156.767 113.984C156.884 114.274 157.136 114.495 157.527 114.647C157.9 114.792 158.236 114.798 158.531 114.665C158.829 114.529 159.063 114.241 159.236 113.798L159.787 112.389L157.408 111.46ZM151.307 112.021L155.649 111.373L155.851 110.854L152.303 109.468L153.19 107.195L162.589 110.863L161.074 114.745C160.783 115.489 160.409 116.067 159.951 116.482C159.495 116.897 158.992 117.144 158.443 117.226C157.895 117.308 157.334 117.237 156.757 117.013C156.074 116.746 155.568 116.332 155.237 115.768C154.904 115.204 154.791 114.529 154.894 113.742L150.327 114.534L151.307 112.021Z" fill="url(#paint51_linear)"/>
<path d="M153.337 128.25C152.392 128.649 151.413 128.669 150.4 128.312L151.697 126.078C152.093 126.11 152.475 126.029 152.836 125.832C153.199 125.633 153.504 125.321 153.75 124.893C154.138 124.227 154.224 123.562 154.008 122.899C153.793 122.235 153.304 121.681 152.538 121.237C151.706 120.756 150.947 120.597 150.256 120.764C149.566 120.93 148.993 121.404 148.541 122.187C148.249 122.688 148.132 123.208 148.188 123.746C148.245 124.285 148.482 124.781 148.903 125.233L150.448 122.567L151.968 123.446L149.397 127.879L147.31 126.669C146.895 126.21 146.576 125.672 146.349 125.056C146.122 124.441 146.038 123.773 146.093 123.052C146.149 122.331 146.386 121.608 146.804 120.884C147.316 120.003 147.95 119.343 148.705 118.901C149.462 118.459 150.281 118.255 151.163 118.289C152.045 118.322 152.919 118.589 153.784 119.09C154.648 119.591 155.314 120.216 155.78 120.966C156.248 121.714 156.48 122.525 156.474 123.396C156.47 124.268 156.214 125.139 155.708 126.012C155.074 127.106 154.284 127.853 153.337 128.25Z" fill="url(#paint52_linear)"/>
<path fill-rule="evenodd" clip-rule="evenodd" d="M142.202 133.917L145.865 135.305L143.809 131.967L142.202 133.917ZM140.37 133.222L142.774 130.303L141.753 128.648L143.386 126.665L148.771 135.886L146.983 138.056L136.9 134.542L138.55 132.537L140.37 133.222Z" fill="url(#paint53_linear)"/>
<path d="M128.56 142.034L130.395 140.425L137.547 142.388L133.461 137.733L135.296 136.123L141.949 143.707L140.116 145.317L132.926 143.31L137.048 148.008L135.213 149.617L128.56 142.034Z" fill="url(#paint54_linear)"/>
<path d="M129.681 153.486L123.976 145.165L125.988 143.785L131.693 152.106L129.681 153.486Z" fill="url(#paint55_linear)"/>
<path d="M118.753 158.688C117.692 158.479 116.788 157.922 116.035 157.017L118.324 155.82C118.709 156.144 119.136 156.334 119.61 156.387C120.084 156.438 120.562 156.341 121.04 156.089C121.673 155.759 122.063 155.26 122.208 154.593C122.354 153.927 122.221 153.206 121.818 152.429C121.411 151.655 120.895 151.138 120.266 150.882C119.638 150.625 119.007 150.662 118.376 150.994C117.894 151.245 117.541 151.58 117.315 151.999C117.089 152.417 116.996 152.875 117.04 153.366L114.752 154.564C114.441 153.438 114.503 152.378 114.933 151.385C115.363 150.392 116.149 149.598 117.286 149.002C118.154 148.548 119.016 148.341 119.875 148.381C120.735 148.42 121.522 148.692 122.243 149.196C122.963 149.7 123.554 150.394 124.016 151.279C124.479 152.164 124.712 153.047 124.717 153.925C124.721 154.803 124.493 155.606 124.036 156.335C123.579 157.062 122.917 157.652 122.049 158.106C120.909 158.703 119.811 158.896 118.753 158.688Z" fill="url(#paint56_linear)"/>
<path d="M111.895 157.972C111.83 158.349 111.674 158.684 111.427 158.973C111.184 159.263 110.879 159.475 110.512 159.607C110.135 159.742 109.762 159.776 109.386 159.708C109.014 159.64 108.682 159.481 108.389 159.232C108.097 158.983 107.884 158.671 107.75 158.295C107.616 157.927 107.585 157.557 107.653 157.183C107.721 156.81 107.877 156.481 108.124 156.196C108.371 155.91 108.682 155.701 109.057 155.565C109.425 155.432 109.794 155.399 110.165 155.461C110.538 155.525 110.869 155.68 111.16 155.923C111.449 156.168 111.66 156.473 111.79 156.841C111.926 157.217 111.96 157.594 111.895 157.972Z" fill="url(#paint57_linear)"/>
<path d="M93.9064 161.905L94.3701 156.608L95.0014 156.495L97.0963 160.586L97.6534 156.021L98.2848 155.907L100.557 160.715L99.9701 160.819L98.0717 156.588L97.5268 161.258L96.9331 161.363L94.8024 157.166L94.4854 161.801L93.9064 161.905Z" fill="url(#paint58_linear)"/>
<path d="M85.4021 162.534L85.1418 157.409L85.6763 157.382L85.7994 159.811L88.7099 159.664L88.5868 157.235L89.1291 157.208L89.3893 162.333L88.8487 162.361L88.7317 160.085L85.8195 160.232L85.9348 162.508L85.4021 162.534Z" fill="url(#paint59_linear)"/>
<path fill-rule="evenodd" clip-rule="evenodd" d="M79.2493 161.754C79.5723 161.6 79.8361 161.367 80.0378 161.055C80.2395 160.742 80.3548 160.371 80.3827 159.941C80.4116 159.509 80.3487 159.126 80.188 158.789C80.0308 158.452 79.8002 158.187 79.4999 157.991C79.2003 157.796 78.8554 157.684 78.4625 157.659C78.073 157.633 77.7124 157.698 77.3893 157.85C77.0662 158.003 76.8033 158.237 76.6016 158.549C76.3982 158.862 76.2846 159.234 76.2549 159.664C76.2261 160.095 76.2907 160.479 76.4505 160.815C76.6077 161.152 76.8383 161.417 77.1369 161.612C77.439 161.808 77.7848 161.92 78.176 161.945C78.5673 161.971 78.9244 161.908 79.2493 161.754ZM76.8261 161.994C76.4445 161.744 76.1554 161.413 75.9554 161.001C75.7563 160.589 75.6734 160.13 75.7074 159.627C75.7415 159.124 75.8838 158.68 76.1371 158.295C76.3894 157.911 76.7213 157.62 77.1308 157.424C77.5439 157.229 77.9962 157.147 78.4948 157.181C78.9916 157.213 79.4309 157.354 79.8125 157.604C80.1941 157.854 80.484 158.185 80.684 158.6C80.8839 159.014 80.9643 159.474 80.9302 159.977C80.8979 160.481 80.7547 160.923 80.5023 161.306C80.25 161.687 79.9173 161.976 79.5077 162.173C79.0947 162.369 78.6424 162.451 78.1437 162.416C77.6469 162.383 77.2077 162.243 76.8261 161.994Z" fill="url(#paint60_linear)"/>
<path d="M71.2382 156.805L69.3145 156.472L69.3818 156.07L71.8417 156.496L70.9675 161.553L70.434 161.46L71.2382 156.805Z" fill="url(#paint61_linear)"/>
<path d="M63.8402 159.645L64.3423 157.774L62.3138 157.231L62.4177 156.844L64.4471 157.388L64.9518 155.497L62.7032 154.895L62.8124 154.486L65.5858 155.229L64.2576 160.186L61.485 159.444L61.5933 159.043L63.8402 159.645Z" fill="url(#paint62_linear)"/>
<path d="M50.5156 155.161L52.6113 150.595L53.096 150.818L51.3417 154.642L54.7543 151.58L55.1909 151.78L55.1079 156.355L56.8561 152.545L57.3504 152.771L55.2529 157.336L54.6774 157.071L54.7053 152.254L51.0858 155.422L50.5156 155.161Z" fill="url(#paint63_linear)"/>
<path d="M46.8026 153.608L49.0572 148.998L49.5436 149.237L47.2889 153.847L46.8026 153.608Z" fill="url(#paint64_linear)"/>
<path d="M45.0596 147.4L43.4092 146.353L43.6275 146.009L45.7355 147.347L42.9857 151.68L42.5299 151.39L45.0596 147.4Z" fill="url(#paint65_linear)"/>
<defs>
<linearGradient id="paint0_linear" x1="37.1761" y1="65.2122" x2="65.9037" y2="65.2122" gradientUnits="userSpaceOnUse">
<stop stop-color="white"/>
<stop offset="1" stop-color="white"/>
</linearGradient>
<linearGradient id="paint1_linear" x1="74.5049" y1="65.1225" x2="80.6839" y2="65.1225" gradientUnits="userSpaceOnUse">
<stop stop-color="white"/>
<stop offset="1" stop-color="white"/>
</linearGradient>
<linearGradient id="paint2_linear" x1="90.7297" y1="65.1235" x2="105.147" y2="65.1235" gradientUnits="userSpaceOnUse">
<stop stop-color="white"/>
<stop offset="1" stop-color="white"/>
</linearGradient>
<linearGradient id="paint3_linear" x1="109.448" y1="65.1239" x2="131.78" y2="65.1239" gradientUnits="userSpaceOnUse">
<stop stop-color="white"/>
<stop offset="1" stop-color="white"/>
</linearGradient>
<linearGradient id="paint4_linear" x1="67.2519" y1="88.2223" x2="104.808" y2="88.2223" gradientUnits="userSpaceOnUse">
<stop stop-color="white"/>
<stop offset="1" stop-color="white"/>
</linearGradient>
<linearGradient id="paint5_linear" x1="49.2397" y1="109.257" x2="58.2017" y2="109.257" gradientUnits="userSpaceOnUse">
<stop stop-color="white"/>
<stop offset="1" stop-color="white"/>
</linearGradient>
<linearGradient id="paint6_linear" x1="60.8694" y1="109.293" x2="71.074" y2="109.293" gradientUnits="userSpaceOnUse">
<stop stop-color="white"/>
<stop offset="1" stop-color="white"/>
</linearGradient>
<linearGradient id="paint7_linear" x1="73.072" y1="109.257" x2="80.9765" y2="109.257" gradientUnits="userSpaceOnUse">
<stop stop-color="white"/>
<stop offset="1" stop-color="white"/>
</linearGradient>
<linearGradient id="paint8_linear" x1="83.6608" y1="109.307" x2="92.0377" y2="109.307" gradientUnits="userSpaceOnUse">
<stop stop-color="white"/>
<stop offset="1" stop-color="white"/>
</linearGradient>
<linearGradient id="paint9_linear" x1="95.377" y1="109.257" x2="103.254" y2="109.257" gradientUnits="userSpaceOnUse">
<stop stop-color="white"/>
<stop offset="1" stop-color="white"/>
</linearGradient>
<linearGradient id="paint10_linear" x1="105.003" y1="109.293" x2="115.207" y2="109.293" gradientUnits="userSpaceOnUse">
<stop stop-color="white"/>
<stop offset="1" stop-color="white"/>
</linearGradient>
<linearGradient id="paint11_linear" x1="117.324" y1="109.257" x2="123.018" y2="109.257" gradientUnits="userSpaceOnUse">
<stop stop-color="white"/>
<stop offset="1" stop-color="white"/>
</linearGradient>
<linearGradient id="paint12_linear" x1="67.362" y1="126.382" x2="71.4435" y2="126.382" gradientUnits="userSpaceOnUse">
<stop stop-color="white"/>
<stop offset="1" stop-color="white"/>
</linearGradient>
<linearGradient id="paint13_linear" x1="74.5976" y1="126.289" x2="82.6173" y2="126.289" gradientUnits="userSpaceOnUse">
<stop stop-color="white"/>
<stop offset="1" stop-color="white"/>
</linearGradient>
<linearGradient id="paint14_linear" x1="85.4989" y1="126.289" x2="93.5187" y2="126.289" gradientUnits="userSpaceOnUse">
<stop stop-color="white"/>
<stop offset="1" stop-color="white"/>
</linearGradient>
<linearGradient id="paint15_linear" x1="96.1603" y1="126.368" x2="106.92" y2="126.368" gradientUnits="userSpaceOnUse">
<stop stop-color="white"/>
<stop offset="1" stop-color="white"/>
</linearGradient>
<linearGradient id="paint16_linear" x1="25.0259" y1="136.019" x2="30.8198" y2="136.019" gradientUnits="userSpaceOnUse">
<stop stop-color="white"/>
<stop offset="1" stop-color="white"/>
</linearGradient>
<linearGradient id="paint17_linear" x1="19.4076" y1="129.397" x2="25.2373" y2="129.397" gradientUnits="userSpaceOnUse">
<stop stop-color="white"/>
<stop offset="1" stop-color="white"/>
</linearGradient>
<linearGradient id="paint18_linear" x1="14.782" y1="122.968" x2="21.2483" y2="122.968" gradientUnits="userSpaceOnUse">
<stop stop-color="white"/>
<stop offset="1" stop-color="white"/>
</linearGradient>
<linearGradient id="paint19_linear" x1="10.4892" y1="114.822" x2="17.1974" y2="114.822" gradientUnits="userSpaceOnUse">
<stop stop-color="white"/>
<stop offset="1" stop-color="white"/>
</linearGradient>
<linearGradient id="paint20_linear" x1="8.20135" y1="105.662" x2="13.7586" y2="105.662" gradientUnits="userSpaceOnUse">
<stop stop-color="white"/>
<stop offset="1" stop-color="white"/>
</linearGradient>
<linearGradient id="paint21_linear" x1="6.0733" y1="98.5258" x2="11.4925" y2="98.5258" gradientUnits="userSpaceOnUse">
<stop stop-color="white"/>
<stop offset="1" stop-color="white"/>
</linearGradient>
<linearGradient id="paint22_linear" x1="4.80182" y1="90.8366" x2="10.2499" y2="90.8366" gradientUnits="userSpaceOnUse">
<stop stop-color="white"/>
<stop offset="1" stop-color="white"/>
</linearGradient>
<linearGradient id="paint23_linear" x1="2.86102" y1="82.2214" x2="7.15653" y2="82.2214" gradientUnits="userSpaceOnUse">
<stop stop-color="white"/>
<stop offset="1" stop-color="white"/>
</linearGradient>
<linearGradient id="paint24_linear" x1="0" y1="71.8576" x2="10.6429" y2="71.8576" gradientUnits="userSpaceOnUse">
<stop stop-color="white"/>
<stop offset="1" stop-color="white"/>
</linearGradient>
<linearGradient id="paint25_linear" x1="3.1611" y1="61.7397" x2="14.6406" y2="61.7397" gradientUnits="userSpaceOnUse">
<stop stop-color="white"/>
<stop offset="1" stop-color="white"/>
</linearGradient>
<linearGradient id="paint26_linear" x1="6.3353" y1="51.8354" x2="16.5163" y2="51.8354" gradientUnits="userSpaceOnUse">
<stop stop-color="white"/>
<stop offset="1" stop-color="white"/>
</linearGradient>
<linearGradient id="paint27_linear" x1="14.2913" y1="34.3427" x2="25.9132" y2="34.3427" gradientUnits="userSpaceOnUse">
<stop stop-color="white"/>
<stop offset="1" stop-color="white"/>
</linearGradient>
<linearGradient id="paint28_linear" x1="29.9492" y1="21.342" x2="38.0799" y2="21.342" gradientUnits="userSpaceOnUse">
<stop stop-color="white"/>
<stop offset="1" stop-color="white"/>
</linearGradient>
<linearGradient id="paint29_linear" x1="41.1213" y1="16.256" x2="51.6996" y2="16.256" gradientUnits="userSpaceOnUse">
<stop stop-color="white"/>
<stop offset="1" stop-color="white"/>
</linearGradient>
<linearGradient id="paint30_linear" x1="50.2911" y1="10.7078" x2="61.2222" y2="10.7078" gradientUnits="userSpaceOnUse">
<stop stop-color="white"/>
<stop offset="1" stop-color="white"/>
</linearGradient>
<linearGradient id="paint31_linear" x1="61.6458" y1="6.75085" x2="74.7084" y2="6.75085" gradientUnits="userSpaceOnUse">
<stop stop-color="white"/>
<stop offset="1" stop-color="white"/>
</linearGradient>
<linearGradient id="paint32_linear" x1="77.9089" y1="5.57754" x2="82.2051" y2="5.57754" gradientUnits="userSpaceOnUse">
<stop stop-color="white"/>
<stop offset="1" stop-color="white"/>
</linearGradient>
<linearGradient id="paint33_linear" x1="89.487" y1="7.99261" x2="93.2701" y2="7.99261" gradientUnits="userSpaceOnUse">
<stop stop-color="white"/>
<stop offset="1" stop-color="white"/>
</linearGradient>
<linearGradient id="paint34_linear" x1="96.7881" y1="9.33807" x2="100.944" y2="9.33807" gradientUnits="userSpaceOnUse">
<stop stop-color="white"/>
<stop offset="1" stop-color="white"/>
</linearGradient>
<linearGradient id="paint35_linear" x1="103.418" y1="10.9903" x2="107.621" y2="10.9903" gradientUnits="userSpaceOnUse">
<stop stop-color="white"/>
<stop offset="1" stop-color="white"/>
</linearGradient>
<linearGradient id="paint36_linear" x1="108.64" y1="13.3712" x2="115.365" y2="13.3712" gradientUnits="userSpaceOnUse">
<stop stop-color="white"/>
<stop offset="1" stop-color="white"/>
</linearGradient>
<linearGradient id="paint37_linear" x1="117.292" y1="16.4473" x2="120.163" y2="16.4473" gradientUnits="userSpaceOnUse">
<stop stop-color="white"/>
<stop offset="1" stop-color="white"/>
</linearGradient>
<linearGradient id="paint38_linear" x1="122.174" y1="19.5217" x2="127.556" y2="19.5217" gradientUnits="userSpaceOnUse">
<stop stop-color="white"/>
<stop offset="1" stop-color="white"/>
</linearGradient>
<linearGradient id="paint39_linear" x1="128.177" y1="25.2119" x2="135.395" y2="25.2119" gradientUnits="userSpaceOnUse">
<stop stop-color="white"/>
<stop offset="1" stop-color="white"/>
</linearGradient>
<linearGradient id="paint40_linear" x1="9.4317" y1="44.2119" x2="22.0787" y2="44.2119" gradientUnits="userSpaceOnUse">
<stop stop-color="white"/>
<stop offset="1" stop-color="white"/>
</linearGradient>
<linearGradient id="paint41_linear" x1="35.2847" y1="145.254" x2="41.1615" y2="145.254" gradientUnits="userSpaceOnUse">
<stop stop-color="white"/>
<stop offset="1" stop-color="white"/>
</linearGradient>
<linearGradient id="paint42_linear" x1="138.347" y1="33.6251" x2="143.874" y2="33.6251" gradientUnits="userSpaceOnUse">
<stop stop-color="white"/>
<stop offset="1" stop-color="white"/>
</linearGradient>
<linearGradient id="paint43_linear" x1="142.947" y1="40.6965" x2="148.555" y2="40.6965" gradientUnits="userSpaceOnUse">
<stop stop-color="white"/>
<stop offset="1" stop-color="white"/>
</linearGradient>
<linearGradient id="paint44_linear" x1="147.768" y1="47.8565" x2="153.073" y2="47.8565" gradientUnits="userSpaceOnUse">
<stop stop-color="white"/>
<stop offset="1" stop-color="white"/>
</linearGradient>
<linearGradient id="paint45_linear" x1="151.072" y1="55.8235" x2="156.728" y2="55.8235" gradientUnits="userSpaceOnUse">
<stop stop-color="white"/>
<stop offset="1" stop-color="white"/>
</linearGradient>
<linearGradient id="paint46_linear" x1="154.306" y1="64.0657" x2="159.903" y2="64.0657" gradientUnits="userSpaceOnUse">
<stop stop-color="white"/>
<stop offset="1" stop-color="white"/>
</linearGradient>
<linearGradient id="paint47_linear" x1="156.058" y1="72.8676" x2="161.31" y2="72.8676" gradientUnits="userSpaceOnUse">
<stop stop-color="white"/>
<stop offset="1" stop-color="white"/>
</linearGradient>
<linearGradient id="paint48_linear" x1="156.847" y1="80.9327" x2="162.052" y2="80.9327" gradientUnits="userSpaceOnUse">
<stop stop-color="white"/>
<stop offset="1" stop-color="white"/>
</linearGradient>
<linearGradient id="paint49_linear" x1="159.298" y1="89.8107" x2="163.596" y2="89.8107" gradientUnits="userSpaceOnUse">
<stop stop-color="white"/>
<stop offset="1" stop-color="white"/>
</linearGradient>
<linearGradient id="paint50_linear" x1="154.955" y1="100.71" x2="165.322" y2="100.71" gradientUnits="userSpaceOnUse">
<stop stop-color="white"/>
<stop offset="1" stop-color="white"/>
</linearGradient>
<linearGradient id="paint51_linear" x1="150.327" y1="112.227" x2="162.589" y2="112.227" gradientUnits="userSpaceOnUse">
<stop stop-color="white"/>
<stop offset="1" stop-color="white"/>
</linearGradient>
<linearGradient id="paint52_linear" x1="146.077" y1="123.425" x2="156.475" y2="123.425" gradientUnits="userSpaceOnUse">
<stop stop-color="white"/>
<stop offset="1" stop-color="white"/>
</linearGradient>
<linearGradient id="paint53_linear" x1="136.9" y1="132.36" x2="148.771" y2="132.36" gradientUnits="userSpaceOnUse">
<stop stop-color="white"/>
<stop offset="1" stop-color="white"/>
</linearGradient>
<linearGradient id="paint54_linear" x1="128.56" y1="142.87" x2="141.949" y2="142.87" gradientUnits="userSpaceOnUse">
<stop stop-color="white"/>
<stop offset="1" stop-color="white"/>
</linearGradient>
<linearGradient id="paint55_linear" x1="123.976" y1="148.635" x2="131.693" y2="148.635" gradientUnits="userSpaceOnUse">
<stop stop-color="white"/>
<stop offset="1" stop-color="white"/>
</linearGradient>
<linearGradient id="paint56_linear" x1="114.557" y1="153.572" x2="124.717" y2="153.572" gradientUnits="userSpaceOnUse">
<stop stop-color="white"/>
<stop offset="1" stop-color="white"/>
</linearGradient>
<linearGradient id="paint57_linear" x1="107.618" y1="157.586" x2="111.927" y2="157.586" gradientUnits="userSpaceOnUse">
<stop stop-color="white"/>
<stop offset="1" stop-color="white"/>
</linearGradient>
<linearGradient id="paint58_linear" x1="93.9064" y1="158.906" x2="100.557" y2="158.906" gradientUnits="userSpaceOnUse">
<stop stop-color="white"/>
<stop offset="1" stop-color="white"/>
</linearGradient>
<linearGradient id="paint59_linear" x1="85.1418" y1="159.871" x2="89.3893" y2="159.871" gradientUnits="userSpaceOnUse">
<stop stop-color="white"/>
<stop offset="1" stop-color="white"/>
</linearGradient>
<linearGradient id="paint60_linear" x1="75.7" y1="159.799" x2="80.9378" y2="159.799" gradientUnits="userSpaceOnUse">
<stop stop-color="white"/>
<stop offset="1" stop-color="white"/>
</linearGradient>
<linearGradient id="paint61_linear" x1="69.3145" y1="158.811" x2="71.8417" y2="158.811" gradientUnits="userSpaceOnUse">
<stop stop-color="white"/>
<stop offset="1" stop-color="white"/>
</linearGradient>
<linearGradient id="paint62_linear" x1="61.485" y1="157.336" x2="65.5858" y2="157.336" gradientUnits="userSpaceOnUse">
<stop stop-color="white"/>
<stop offset="1" stop-color="white"/>
</linearGradient>
<linearGradient id="paint63_linear" x1="50.5156" y1="153.966" x2="57.3504" y2="153.966" gradientUnits="userSpaceOnUse">
<stop stop-color="white"/>
<stop offset="1" stop-color="white"/>
</linearGradient>
<linearGradient id="paint64_linear" x1="46.8026" y1="151.422" x2="49.5436" y2="151.422" gradientUnits="userSpaceOnUse">
<stop stop-color="white"/>
<stop offset="1" stop-color="white"/>
</linearGradient>
<linearGradient id="paint65_linear" x1="42.5299" y1="148.845" x2="45.7355" y2="148.845" gradientUnits="userSpaceOnUse">
<stop stop-color="white"/>
<stop offset="1" stop-color="white"/>
</linearGradient>
</defs>
</svg>
