<svg width="127" height="150" viewBox="0 0 127 150" fill="none" xmlns="http://www.w3.org/2000/svg">
<path d="M24.0467 1.34863V26.5633H17.9115V16.0416H7.33234V26.5633H1.23313V1.34863H7.33234V11.1202H17.9115V1.34863H24.0467Z" fill="url(#paint0_linear)"/>
<path fill-rule="evenodd" clip-rule="evenodd" d="M53.5878 43.8272L49.1577 30.7741L44.5098 43.8272H53.5878ZM55.4352 49.2835H42.6487H42.845H36.4252L45.6627 24.2471H52.6886L61.9253 49.2835H55.4352Z" fill="url(#paint1_linear)"/>
<path d="M93.8444 74.9525H87.746L77.5458 59.4742V74.9525H71.4474V49.7378H77.5458L87.746 65.3592V49.7378H93.8444V74.9525Z" fill="url(#paint2_linear)"/>
<path fill-rule="evenodd" clip-rule="evenodd" d="M116.792 92.82C118.112 91.5599 118.771 89.7888 118.771 87.5051C118.771 85.224 118.112 83.453 116.792 82.192C115.472 80.9319 113.623 80.3018 111.245 80.3018H108.357V94.7102H111.245C113.623 94.7102 115.472 94.0801 116.792 92.82ZM123.354 94.0852C122.295 96.0003 120.774 97.4919 118.788 98.5617C116.804 99.6316 114.467 100.166 111.78 100.166H102.258V74.9526H111.78C114.491 74.9526 116.833 75.4756 118.807 76.5214C120.78 77.5681 122.295 79.0425 123.354 80.9439C124.411 82.8461 124.941 85.0337 124.941 87.5051C124.941 89.9791 124.411 92.1727 123.354 94.0852Z" fill="url(#paint3_linear)"/>
<path d="M28.0817 48.2153V73.2517H22.2859V57.5952L17.1348 73.2517H12.1183L6.93203 57.56V73.2517H1.13623V48.2153H8.22045L14.6943 65.6557L21.0327 48.2153H28.0817Z" fill="url(#paint4_linear)"/>
<path fill-rule="evenodd" clip-rule="evenodd" d="M52.17 89.0505L49.0308 79.7787L45.8565 89.0505H52.17ZM53.7387 93.6873H44.2877L42.7181 98.2881H36.2992L45.5358 73.2517H52.5618L61.7993 98.2881H55.3083L53.7387 93.6873Z" fill="url(#paint5_linear)"/>
<path fill-rule="evenodd" clip-rule="evenodd" d="M85.8388 116.156C87.1589 114.896 87.8181 113.122 87.8181 110.841C87.8181 108.561 87.1589 106.787 85.8388 105.527C84.5186 104.266 82.6705 103.641 80.2925 103.641H77.4036V118.042H80.2925C82.6705 118.042 84.5186 117.416 85.8388 116.156ZM92.4009 117.425C91.3422 119.337 89.8206 120.828 87.8353 121.9C85.8508 122.971 83.5139 123.503 80.8274 123.503H71.3052V98.2881H80.8274C83.538 98.2881 85.8799 98.811 87.8541 99.8568C89.8266 100.904 91.3422 102.381 92.4009 104.284C93.4579 106.178 93.9876 108.373 93.9876 110.841C93.9876 113.319 93.4579 115.505 92.4009 117.425Z" fill="url(#paint6_linear)"/>
<path d="M108.357 128.355V133.627H119.902V138.23H108.357V143.828H120.972V148.714H102.258V123.503H120.972V128.355H108.357Z" fill="url(#paint7_linear)"/>
<path d="M5.93159 131.929C5.76786 132.238 5.51413 132.495 5.17209 132.684C4.83091 132.881 4.40486 132.975 3.89566 132.975C3.40104 132.975 2.96129 132.881 2.57554 132.701C2.18978 132.521 1.8829 132.272 1.65316 131.955C1.42428 131.638 1.29142 131.278 1.25542 130.892H2.06289C2.09118 131.115 2.17522 131.338 2.31409 131.569C2.4521 131.792 2.65271 131.981 2.91416 132.126C3.17562 132.281 3.49279 132.349 3.86312 132.349C4.35088 132.349 4.72377 132.221 4.9818 131.955C5.23983 131.698 5.36929 131.363 5.36929 130.969C5.36929 130.626 5.28356 130.343 5.11297 130.129C4.94152 129.915 4.73061 129.752 4.4803 129.632C4.22913 129.52 3.88538 129.392 3.44904 129.255C2.96814 129.1 2.5807 128.955 2.28667 128.809C1.99178 128.672 1.74232 128.457 1.53916 128.183C1.33513 127.909 1.23313 127.54 1.23313 127.077C1.23313 126.503 1.43716 126.023 1.84435 125.663C2.25153 125.294 2.81216 125.114 3.52538 125.114C4.25232 125.114 4.82921 125.294 5.2544 125.654C5.68044 126.006 5.93333 126.451 6.01306 126.983H5.19438C5.12923 126.657 4.95607 126.366 4.67661 126.109C4.39629 125.851 4.01229 125.731 3.52538 125.731C3.07362 125.731 2.71354 125.843 2.44437 126.074C2.1752 126.306 2.0406 126.631 2.0406 127.052C2.0406 127.377 2.12464 127.643 2.2918 127.84C2.45896 128.046 2.66469 128.209 2.90815 128.312C3.15246 128.423 3.48505 128.543 3.90681 128.68C4.39457 128.835 4.78894 128.989 5.09068 129.135C5.39243 129.28 5.64961 129.495 5.86049 129.786C6.07137 130.078 6.17677 130.463 6.17677 130.943C6.17677 131.295 6.09532 131.621 5.93159 131.929Z" fill="url(#paint8_linear)"/>
<path d="M16.8819 125.2V125.826H14.6891V132.898H13.9245V125.826H11.7428V125.2H16.8819Z" fill="url(#paint9_linear)"/>
<path d="M23.4286 125.2V129.864C23.4286 130.686 23.6095 131.286 23.9687 131.672C24.3296 132.058 24.8217 132.255 25.4474 132.255C26.0732 132.255 26.5627 132.058 26.915 131.672C27.2682 131.286 27.4448 130.686 27.4448 129.864V125.2H28.2085V129.864C28.2085 130.901 27.9574 131.681 27.4559 132.195C26.9536 132.718 26.2806 132.975 25.4371 132.975C24.5928 132.975 23.9198 132.718 23.4184 132.195C22.916 131.681 22.6648 130.901 22.6648 129.864V125.2H23.4286Z" fill="url(#paint10_linear)"/>
<path fill-rule="evenodd" clip-rule="evenodd" d="M5.83564 147.488C6.40312 146.931 6.68602 146.159 6.68602 145.165C6.68602 144.162 6.40312 143.39 5.83564 142.833C5.26729 142.276 4.44181 141.993 3.35827 141.993H1.86324V148.328H3.35827C4.44181 148.328 5.26729 148.045 5.83564 147.488ZM6.99204 147.222C6.67915 147.797 6.21883 148.242 5.61191 148.551C5.00413 148.86 4.27121 149.014 3.41226 149.014H1.0883V141.316H3.41226C4.70754 141.316 5.70622 141.659 6.40829 142.336C7.11037 143.022 7.461 143.956 7.461 145.165C7.461 145.954 7.30493 146.639 6.99204 147.222Z" fill="url(#paint11_linear)"/>
<path d="M14.4345 141.316V149.014H13.6596V141.316H14.4345Z" fill="url(#paint12_linear)"/>
<path fill-rule="evenodd" clip-rule="evenodd" d="M22.8749 142.336C22.4274 142.594 22.0742 142.971 21.8171 143.459C21.5582 143.948 21.4296 144.514 21.4296 145.165C21.4296 145.808 21.5582 146.374 21.8171 146.863C22.0742 147.351 22.4274 147.728 22.8749 147.985C23.3232 148.251 23.8265 148.38 24.3871 148.38C24.9469 148.38 25.4509 148.251 25.8975 147.985C26.3458 147.728 26.6981 147.351 26.9562 146.863C27.2142 146.374 27.3437 145.808 27.3437 145.165C27.3437 144.514 27.2142 143.948 26.9562 143.459C26.6981 142.971 26.3458 142.594 25.8975 142.336C25.4509 142.071 24.9469 141.942 24.3871 141.942C23.8265 141.942 23.3232 142.071 22.8749 142.336ZM26.3073 141.736C26.8748 142.071 27.3205 142.533 27.6437 143.134C27.9677 143.725 28.1297 144.402 28.1297 145.165C28.1297 145.92 27.9677 146.597 27.6437 147.197C27.3205 147.797 26.8748 148.26 26.3073 148.594C25.7398 148.937 25.0995 149.1 24.3871 149.1C23.6739 149.1 23.0335 148.937 22.466 148.594C21.8985 148.26 21.4527 147.797 21.1296 147.197C20.8055 146.597 20.6435 145.92 20.6435 145.165C20.6435 144.402 20.8055 143.725 21.1296 143.134C21.4527 142.533 21.8985 142.071 22.466 141.736C23.0335 141.402 23.6739 141.23 24.3871 141.23C25.0995 141.23 25.7398 141.402 26.3073 141.736Z" fill="url(#paint13_linear)"/>
<path d="M92.3743 8.06336C92.2132 8.36767 91.9637 8.61457 91.6268 8.80402C91.2899 8.99432 90.8707 9.08943 90.3684 9.08943C89.8815 9.08943 89.4486 8.99945 89.0688 8.82029C88.6882 8.64199 88.3865 8.39595 88.1602 8.08392C87.9339 7.77274 87.8035 7.42297 87.7684 7.0355H88.563C88.5913 7.25838 88.6745 7.48042 88.8108 7.70244C88.9462 7.92447 89.1443 8.10877 89.4014 8.25621C89.6603 8.4028 89.9715 8.47654 90.3375 8.47654C90.8176 8.47654 91.1845 8.34793 91.4391 8.08905C91.6928 7.83188 91.8206 7.50528 91.8206 7.11095C91.8206 6.77491 91.7365 6.50061 91.5677 6.28887C91.3996 6.07714 91.1922 5.91428 90.9445 5.79941C90.6976 5.6854 90.359 5.55936 89.9286 5.42306C89.4546 5.27219 89.074 5.12732 88.7834 4.98759C88.4928 4.84786 88.2476 4.64212 88.0479 4.36952C87.8464 4.09777 87.7461 3.73517 87.7461 3.28426C87.7461 2.71077 87.9476 2.24529 88.3479 1.88697C88.7499 1.52864 89.3011 1.34863 90.0041 1.34863C90.7199 1.34863 91.2882 1.52436 91.7074 1.87582C92.1266 2.22729 92.3752 2.6645 92.4549 3.18742H91.6482C91.5839 2.8651 91.4134 2.5779 91.1374 2.32673C90.8622 2.07642 90.4833 1.95127 90.0041 1.95127C89.56 1.95127 89.2051 2.06614 88.9394 2.29502C88.6745 2.52476 88.5425 2.84362 88.5425 3.25167C88.5425 3.57485 88.6239 3.83546 88.7885 4.03691C88.9539 4.2375 89.1563 4.39182 89.3954 4.49812C89.6363 4.60613 89.9646 4.72872 90.3795 4.86416C90.8596 5.01504 91.2488 5.16244 91.5471 5.3056C91.8437 5.4479 92.0958 5.66308 92.3049 5.95025C92.5115 6.23657 92.6152 6.61636 92.6152 7.08955C92.6152 7.43416 92.5364 7.75818 92.3743 8.06336Z" fill="url(#paint14_linear)"/>
<path d="M97.2039 1.4353V9.01411H96.4401V1.4353H97.2039Z" fill="url(#paint15_linear)"/>
<path d="M107.522 9.01411H106.76L102.611 2.6817V9.01411H101.847V1.44556H102.611L106.76 7.78822V1.44556H107.522V9.01411Z" fill="url(#paint16_linear)"/>
<path d="M116.767 2.0215C117.361 2.46126 117.78 3.06904 118.024 3.84313H117.229C117.027 3.29878 116.695 2.86502 116.229 2.54184C115.762 2.21952 115.186 2.05839 114.499 2.05839C113.975 2.05839 113.5 2.18694 113.074 2.44583C112.648 2.70386 112.313 3.07248 112.069 3.55253C111.825 4.03344 111.703 4.59238 111.703 5.23017C111.703 5.86795 111.825 6.42511 112.069 6.90173C112.313 7.37835 112.648 7.74528 113.074 8.00331C113.5 8.26219 113.975 8.39075 114.499 8.39075C115.186 8.39075 115.762 8.22873 116.229 7.90641C116.695 7.58409 117.027 7.15038 117.229 6.60517H118.024C117.78 7.37926 117.361 7.98787 116.767 8.42763C116.172 8.86911 115.418 9.0894 114.509 9.0894C113.814 9.0894 113.193 8.92398 112.649 8.5948C112.104 8.26477 111.682 7.8087 111.38 7.22492C111.08 6.64029 110.929 5.97596 110.929 5.23017C110.929 4.47752 111.08 3.80713 111.38 3.21993C111.682 2.63186 112.104 2.17498 112.649 1.84837C113.193 1.52348 113.814 1.35974 114.509 1.35974C115.418 1.35974 116.172 1.58003 116.767 2.0215Z" fill="url(#paint17_linear)"/>
<path d="M121.802 2.04736V4.90793H124.758V5.49859H121.802V8.39086H125.081V9.01411H121.039V1.4353H125.081V2.04736H121.802Z" fill="url(#paint18_linear)"/>
<path d="M87.8592 23.5176V22.9132L88.6308 22.164C90.4884 20.3955 91.3284 19.4551 91.3396 18.3596C91.3396 17.6207 90.9812 16.9383 89.896 16.9383C89.2351 16.9383 88.6873 17.2726 88.3513 17.5538L88.0375 16.8594C88.5407 16.4342 89.2574 16.1213 90.0966 16.1213C91.6636 16.1213 92.3237 17.1955 92.3237 18.2362C92.3237 19.5786 91.3499 20.6639 89.8171 22.1409L89.2351 22.6784V22.7015H92.5029V23.5176H87.8592Z" fill="url(#paint19_linear)"/>
<path fill-rule="evenodd" clip-rule="evenodd" d="M100.461 19.9155C100.461 21.8065 101.043 22.8806 101.938 22.8806C102.946 22.8806 103.426 21.7054 103.426 19.8478C103.426 18.057 102.967 16.8826 101.949 16.8826C101.087 16.8826 100.461 17.9336 100.461 19.9155ZM104.411 19.8023C104.411 22.2754 103.493 23.641 101.882 23.641C100.461 23.641 99.4979 22.3098 99.4756 19.9035C99.4756 17.4638 100.528 16.1213 102.004 16.1213C103.538 16.1213 104.411 17.4861 104.411 19.8023Z" fill="url(#paint20_linear)"/>
<path d="M113.526 17.1619H113.504L112.239 17.8442L112.049 17.0941L113.637 16.2446H114.477V23.5174H113.526V17.1619Z" fill="url(#paint21_linear)"/>
<path fill-rule="evenodd" clip-rule="evenodd" d="M121.812 17.9893C121.812 18.7179 122.36 19.1097 123.2 19.3326C123.826 19.1208 124.308 18.6725 124.308 18.0124C124.308 17.4303 123.961 16.826 123.077 16.826C122.26 16.826 121.812 17.3626 121.812 17.9893ZM124.521 21.6274C124.521 20.7427 123.905 20.3166 122.92 20.0372C122.07 20.2841 121.611 20.843 121.611 21.5373C121.577 22.2754 122.137 22.9252 123.065 22.9252C123.95 22.9252 124.521 22.3757 124.521 21.6274ZM120.604 21.672C120.604 20.7539 121.152 20.1049 122.048 19.7243L122.036 19.69C121.231 19.3103 120.884 18.6836 120.884 18.057C120.884 16.904 121.857 16.1213 123.133 16.1213C124.543 16.1213 125.247 17.0043 125.247 17.9121C125.247 18.5268 124.946 19.1868 124.05 19.6129V19.6463C124.956 20.0046 125.517 20.6424 125.517 21.5262C125.517 22.7906 124.431 23.641 123.044 23.641C121.522 23.641 120.604 22.7341 120.604 21.672Z" fill="url(#paint22_linear)"/>
<path d="M78.392 150L0.468502 91.8452L1.80495 90.0527L79.7284 148.2L78.392 150Z" fill="url(#paint23_linear)"/>
<path d="M124.848 61.6302L45.6678 2.24536L47.0043 0.452881L126.184 59.8378L124.848 61.6302Z" fill="url(#paint24_linear)"/>
<defs>
<linearGradient id="paint0_linear" x1="1.23313" y1="13.956" x2="24.0476" y2="13.956" gradientUnits="userSpaceOnUse">
<stop stop-color="white"/>
<stop offset="1" stop-color="white"/>
</linearGradient>
<linearGradient id="paint1_linear" x1="36.4252" y1="36.7653" x2="61.9263" y2="36.7653" gradientUnits="userSpaceOnUse">
<stop stop-color="white"/>
<stop offset="1" stop-color="white"/>
</linearGradient>
<linearGradient id="paint2_linear" x1="71.4474" y1="62.3451" x2="93.8453" y2="62.3451" gradientUnits="userSpaceOnUse">
<stop stop-color="white"/>
<stop offset="1" stop-color="white"/>
</linearGradient>
<linearGradient id="paint3_linear" x1="102.258" y1="87.5595" x2="124.941" y2="87.5595" gradientUnits="userSpaceOnUse">
<stop stop-color="white"/>
<stop offset="1" stop-color="white"/>
</linearGradient>
<linearGradient id="paint4_linear" x1="1.13623" y1="60.7335" x2="28.0827" y2="60.7335" gradientUnits="userSpaceOnUse">
<stop stop-color="white"/>
<stop offset="1" stop-color="white"/>
</linearGradient>
<linearGradient id="paint5_linear" x1="36.2992" y1="85.7699" x2="61.8002" y2="85.7699" gradientUnits="userSpaceOnUse">
<stop stop-color="white"/>
<stop offset="1" stop-color="white"/>
</linearGradient>
<linearGradient id="paint6_linear" x1="71.3052" y1="110.895" x2="93.9885" y2="110.895" gradientUnits="userSpaceOnUse">
<stop stop-color="white"/>
<stop offset="1" stop-color="white"/>
</linearGradient>
<linearGradient id="paint7_linear" x1="102.258" y1="136.109" x2="120.972" y2="136.109" gradientUnits="userSpaceOnUse">
<stop stop-color="white"/>
<stop offset="1" stop-color="white"/>
</linearGradient>
<linearGradient id="paint8_linear" x1="1.23313" y1="129.045" x2="6.17696" y2="129.045" gradientUnits="userSpaceOnUse">
<stop stop-color="white"/>
<stop offset="1" stop-color="white"/>
</linearGradient>
<linearGradient id="paint9_linear" x1="11.7428" y1="129.049" x2="16.8821" y2="129.049" gradientUnits="userSpaceOnUse">
<stop stop-color="white"/>
<stop offset="1" stop-color="white"/>
</linearGradient>
<linearGradient id="paint10_linear" x1="22.6648" y1="129.088" x2="28.2088" y2="129.088" gradientUnits="userSpaceOnUse">
<stop stop-color="white"/>
<stop offset="1" stop-color="white"/>
</linearGradient>
<linearGradient id="paint11_linear" x1="1.0883" y1="145.165" x2="7.46124" y2="145.165" gradientUnits="userSpaceOnUse">
<stop stop-color="white"/>
<stop offset="1" stop-color="white"/>
</linearGradient>
<linearGradient id="paint12_linear" x1="13.6596" y1="145.165" x2="14.4345" y2="145.165" gradientUnits="userSpaceOnUse">
<stop stop-color="white"/>
<stop offset="1" stop-color="white"/>
</linearGradient>
<linearGradient id="paint13_linear" x1="20.6435" y1="145.165" x2="28.13" y2="145.165" gradientUnits="userSpaceOnUse">
<stop stop-color="white"/>
<stop offset="1" stop-color="white"/>
</linearGradient>
<linearGradient id="paint14_linear" x1="87.7461" y1="5.21903" x2="92.6154" y2="5.21903" gradientUnits="userSpaceOnUse">
<stop stop-color="white"/>
<stop offset="1" stop-color="white"/>
</linearGradient>
<linearGradient id="paint15_linear" x1="96.4401" y1="5.22471" x2="97.204" y2="5.22471" gradientUnits="userSpaceOnUse">
<stop stop-color="white"/>
<stop offset="1" stop-color="white"/>
</linearGradient>
<linearGradient id="paint16_linear" x1="101.847" y1="5.22984" x2="107.523" y2="5.22984" gradientUnits="userSpaceOnUse">
<stop stop-color="white"/>
<stop offset="1" stop-color="white"/>
</linearGradient>
<linearGradient id="paint17_linear" x1="110.929" y1="5.22457" x2="118.025" y2="5.22457" gradientUnits="userSpaceOnUse">
<stop stop-color="white"/>
<stop offset="1" stop-color="white"/>
</linearGradient>
<linearGradient id="paint18_linear" x1="121.039" y1="5.22471" x2="125.081" y2="5.22471" gradientUnits="userSpaceOnUse">
<stop stop-color="white"/>
<stop offset="1" stop-color="white"/>
</linearGradient>
<linearGradient id="paint19_linear" x1="87.8592" y1="19.8195" x2="92.503" y2="19.8195" gradientUnits="userSpaceOnUse">
<stop stop-color="white"/>
<stop offset="1" stop-color="white"/>
</linearGradient>
<linearGradient id="paint20_linear" x1="99.4756" y1="19.8812" x2="104.411" y2="19.8812" gradientUnits="userSpaceOnUse">
<stop stop-color="white"/>
<stop offset="1" stop-color="white"/>
</linearGradient>
<linearGradient id="paint21_linear" x1="112.049" y1="19.881" x2="114.477" y2="19.881" gradientUnits="userSpaceOnUse">
<stop stop-color="white"/>
<stop offset="1" stop-color="white"/>
</linearGradient>
<linearGradient id="paint22_linear" x1="120.604" y1="19.8812" x2="125.517" y2="19.8812" gradientUnits="userSpaceOnUse">
<stop stop-color="white"/>
<stop offset="1" stop-color="white"/>
</linearGradient>
<linearGradient id="paint23_linear" x1="0.468502" y1="120.026" x2="79.7314" y2="120.026" gradientUnits="userSpaceOnUse">
<stop stop-color="white"/>
<stop offset="1" stop-color="white"/>
</linearGradient>
<linearGradient id="paint24_linear" x1="45.6678" y1="31.0416" x2="126.188" y2="31.0416" gradientUnits="userSpaceOnUse">
<stop stop-color="white"/>
<stop offset="1" stop-color="white"/>
</linearGradient>
</defs>
</svg>
