<svg width="209" height="118" viewBox="0 0 209 118" fill="none" xmlns="http://www.w3.org/2000/svg">
<path d="M42.085 60.8015C46.31 64.5168 48.938 69.5508 49.971 75.8989H36.631C35.744 73.7247 34.393 71.9939 32.576 70.7078C30.756 69.4216 28.569 68.7779 26.017 68.7779C22.034 68.7779 18.842 70.3377 16.433 73.4558C14.024 76.5694 12.823 80.7898 12.823 86.1055C12.823 91.8844 14.088 96.3166 16.62 99.4034C19.148 102.494 22.745 104.039 27.416 104.039C30.414 104.039 33.041 103.081 35.303 101.161C37.561 99.2463 39.159 96.5157 40.093 92.9715H24.173V82.4182H50.631V96.9184C49.649 100.463 48.079 103.753 45.917 106.783C43.754 109.814 40.988 112.271 37.625 114.159C34.258 116.045 30.414 116.989 26.089 116.989C20.829 116.989 16.238 115.689 12.307 113.089C8.37501 110.484 5.342 106.839 3.203 102.151C1.065 97.4597 0 92.1114 0 86.1055C0 80.1042 1.065 74.756 3.203 70.0641C5.342 65.377 8.363 61.7315 12.271 59.1266C16.175 56.5264 20.734 55.2263 25.942 55.2263C32.477 55.2263 37.855 57.0816 42.085 60.8015Z" fill="url(#paint0_linear)"/>
<path d="M205.257 70.8961C203.07 66.3207 199.938 62.7766 195.859 60.259C191.78 57.7426 186.939 56.4832 181.334 56.4832H161.657V83.0791H174.258V69.3563H180.229C185.142 69.3563 188.966 70.8682 191.693 73.8991C194.42 76.9347 195.787 81.1912 195.787 86.6838C195.787 92.1706 194.42 96.4317 191.693 99.4626C188.966 102.497 185.142 104.01 180.229 104.01H174.258H161.657V117.137H181.334C186.891 117.137 191.717 115.851 195.82 113.279C199.922 110.702 203.07 107.116 205.257 102.511C207.443 97.9076 208.532 92.6327 208.532 86.6838C208.532 80.7326 207.443 75.4727 205.257 70.8961Z" fill="url(#paint1_linear)"/>
<path d="M99.2379 90.4831C98.7049 93.6431 97.8119 96.4866 96.1349 98.6306C93.6779 101.777 90.4109 103.35 86.3319 103.35C82.2059 103.35 78.9259 101.777 76.4979 98.6306C74.0649 95.4891 72.8479 91.256 72.8479 85.9345V82.4182H60.0249V85.9345C60.0249 91.8845 61.1889 97.2327 63.5229 101.98C65.8559 106.727 69.0239 110.429 73.0309 113.09C77.0339 115.745 81.4669 117.078 86.3319 117.078C91.1979 117.078 95.6339 115.745 99.6329 113.09C103.64 110.429 106.812 106.727 109.142 101.98C110.852 98.5072 111.718 94.5999 112.177 90.4831H99.2379Z" fill="url(#paint2_linear)"/>
<path d="M148.684 70.9208C146.355 66.1731 143.182 62.4718 139.175 59.8111C135.176 57.1561 130.74 55.8235 125.875 55.8235C121.009 55.8235 116.573 57.1561 112.573 59.8111C108.567 62.4718 105.395 66.1731 103.065 70.9208C101.355 74.394 100.489 78.3014 100.03 82.4182H112.969C113.502 79.2581 114.395 76.4146 116.072 74.2707C118.529 71.1246 121.796 69.5509 125.875 69.5509C129.504 69.5509 133.144 70.8184 135.789 73.8098C138.78 77.191 140.341 82.1551 140.341 86.9668V101.194H152.182V86.9668C152.182 81.0168 151.022 75.6673 148.684 70.9208Z" fill="url(#paint3_linear)"/>
<path d="M62.6739 65.5657V75.0459H60.7019V65.5657H62.6739Z" fill="url(#paint4_linear)"/>
<path fill-rule="evenodd" clip-rule="evenodd" d="M70.7989 72.2839C71.2289 71.8113 71.4429 71.1455 71.4429 70.2842C71.4429 69.4287 71.2289 68.763 70.7989 68.2904C70.3779 67.8144 69.7739 67.5781 69.0099 67.5781H68.0719V72.9962H69.0099C69.7739 72.9962 70.3779 72.7599 70.7989 72.2839ZM72.9219 72.7599C72.5799 73.4769 72.0869 74.0414 71.4429 74.4442C70.8069 74.8469 70.0519 75.0459 69.1849 75.0459H66.1089V65.5657H69.1849C70.0599 65.5657 70.8149 65.7647 71.4509 66.1581C72.0869 66.5503 72.5799 67.1055 72.9219 67.819C73.2639 68.536 73.4309 69.3542 73.4309 70.2842C73.4309 71.2142 73.2639 72.0383 72.9219 72.7599Z" fill="url(#paint5_linear)"/>
<path d="M78.5909 67.3884V69.3729H81.3419V71.1037H78.5909V73.2092H81.6909V75.0459H76.6189V65.5657H81.6909V67.3884H78.5909Z" fill="url(#paint6_linear)"/>
<path fill-rule="evenodd" clip-rule="evenodd" d="M89.4189 71.576L88.4089 68.0864L87.3839 71.576H89.4189ZM89.9269 73.3149H86.8749L86.3659 75.0456H84.2909L87.2799 65.634H89.5459L92.5279 75.0456H90.4369L89.9269 73.3149Z" fill="url(#paint7_linear)"/>
<path fill-rule="evenodd" clip-rule="evenodd" d="M123.884 98.4292C124.309 97.9578 124.524 97.2921 124.524 96.4308C124.524 95.5753 124.309 94.9083 123.884 94.4369C123.458 93.9597 122.858 93.7246 122.091 93.7246H121.156V99.1427H122.091C122.858 99.1427 123.458 98.9064 123.884 98.4292ZM126.002 98.9064C125.66 99.6234 125.168 100.188 124.528 100.591C123.887 100.992 123.132 101.192 122.266 101.192H119.189V91.7109H122.266C123.14 91.7109 123.895 91.91 124.531 92.3034C125.172 92.6968 125.66 93.252 126.002 93.9644C126.344 94.6813 126.515 95.5008 126.515 96.4308C126.515 97.3607 126.344 98.1847 126.002 98.9064Z" fill="url(#paint8_linear)"/>
<path d="M131.001 93.5348V95.5194H133.755V97.2501H131.001V99.3545H134.101V101.192H129.033V91.7109H134.101V93.5348H131.001Z" fill="url(#paint9_linear)"/>
<path d="M124.953 115.993C124.734 116.414 124.412 116.747 123.987 116.998C123.562 117.247 123.045 117.372 122.437 117.372C121.522 117.372 120.771 117.113 120.178 116.595C119.591 116.076 119.264 115.354 119.213 114.424H121.308C121.34 114.781 121.447 115.063 121.637 115.267C121.824 115.475 122.067 115.576 122.357 115.576C122.612 115.576 122.81 115.498 122.957 115.335C123.1 115.175 123.176 114.961 123.176 114.693C123.176 114.452 123.108 114.248 122.973 114.086C122.838 113.929 122.671 113.796 122.472 113.693C122.274 113.592 121.995 113.467 121.641 113.323C121.129 113.119 120.707 112.921 120.382 112.727C120.055 112.536 119.773 112.25 119.539 111.87C119.308 111.491 119.189 110.996 119.189 110.39C119.189 109.825 119.312 109.34 119.559 108.928C119.805 108.516 120.143 108.202 120.576 107.984C121.009 107.762 121.507 107.656 122.067 107.656C122.973 107.656 123.696 107.905 124.229 108.405C124.762 108.905 125.064 109.594 125.132 110.469H123.001C122.965 110.154 122.866 109.909 122.707 109.724C122.552 109.544 122.337 109.451 122.067 109.451C121.84 109.451 121.654 109.52 121.51 109.664C121.367 109.807 121.296 110.02 121.296 110.293C121.296 110.52 121.359 110.709 121.487 110.867C121.614 111.02 121.773 111.149 121.964 111.246C122.158 111.343 122.432 111.468 122.794 111.621C123.315 111.828 123.744 112.032 124.074 112.231C124.404 112.435 124.687 112.727 124.925 113.111C125.164 113.494 125.283 113.995 125.283 114.609C125.283 115.114 125.172 115.572 124.953 115.993Z" fill="url(#paint10_linear)"/>
<path d="M131.001 107.773V117.254H129.033V107.773H131.001Z" fill="url(#paint11_linear)"/>
<path d="M140.68 108.576C141.34 109.159 141.749 109.946 141.912 110.936H139.825C139.686 110.598 139.475 110.329 139.193 110.127C138.907 109.928 138.565 109.825 138.168 109.825C137.544 109.825 137.047 110.071 136.669 110.556C136.295 111.043 136.105 111.704 136.105 112.532C136.105 113.435 136.303 114.128 136.701 114.609C137.094 115.095 137.655 115.335 138.386 115.335C138.855 115.335 139.265 115.187 139.618 114.887C139.972 114.587 140.223 114.161 140.366 113.606H137.882V111.959H142.015V114.22C141.861 114.777 141.614 115.29 141.276 115.766C140.938 116.238 140.509 116.623 139.98 116.918C139.456 117.214 138.855 117.358 138.179 117.358C137.357 117.358 136.641 117.154 136.025 116.752C135.409 116.344 134.936 115.775 134.602 115.04C134.268 114.309 134.101 113.472 134.101 112.532C134.101 111.593 134.268 110.76 134.602 110.024C134.936 109.293 135.409 108.724 136.021 108.317C136.629 107.909 137.341 107.707 138.156 107.707C139.177 107.707 140.016 107.998 140.68 108.576Z" fill="url(#paint12_linear)"/>
<path d="M152.159 117.279H150.187L146.892 111.458V117.279H144.924V107.799H146.892L150.187 113.674V107.799H152.159V117.279Z" fill="url(#paint13_linear)"/>
<path d="M78.504 28.7573C78.659 28.5827 78.848 28.4966 79.072 28.4966C79.296 28.4966 79.486 28.5827 79.641 28.7573C79.796 28.9331 79.873 29.1461 79.873 29.3963C79.873 29.6431 79.796 29.8502 79.641 30.0213C79.486 30.1889 79.296 30.2739 79.072 30.2739C78.848 30.2739 78.659 30.1889 78.504 30.0213C78.348 29.8502 78.271 29.6431 78.271 29.3963C78.271 29.1461 78.348 28.9331 78.504 28.7573Z" fill="url(#paint14_linear)"/>
<path d="M86.8389 26.9472C87.2269 27.2557 87.4899 27.6747 87.6319 28.2031H87.1279C87.0029 27.8376 86.7869 27.5443 86.4899 27.3185C86.1929 27.0904 85.8399 26.9775 85.4349 26.9775C85.0819 26.9775 84.7629 27.0706 84.4789 27.2557C84.1939 27.4419 83.9699 27.7049 83.8109 28.0483C83.6469 28.394 83.5649 28.7921 83.5649 29.2518C83.5649 29.7174 83.6469 30.1236 83.8109 30.467C83.9789 30.8103 84.2029 31.0769 84.4909 31.2596C84.7799 31.4447 85.1119 31.5378 85.4819 31.5378C85.8099 31.5378 86.1109 31.4575 86.3829 31.2945C86.6579 31.1339 86.8779 30.8988 87.0459 30.5904C87.2139 30.2819 87.3129 29.9211 87.3389 29.5044H85.3099V29.0959H87.7649V29.5754C87.7309 30.0363 87.6139 30.4519 87.4119 30.8208C87.2139 31.1921 86.9429 31.4831 86.6019 31.6961C86.2619 31.9091 85.8739 32.0162 85.4389 32.0162C84.9779 32.0162 84.5649 31.8986 84.2029 31.6659C83.8449 31.4331 83.5649 31.1036 83.3669 30.6823C83.1649 30.2621 83.0659 29.7849 83.0659 29.2518C83.0659 28.7176 83.1649 28.238 83.3669 27.8178C83.5649 27.3965 83.8409 27.0706 84.2029 26.8378C84.5599 26.6016 84.9689 26.4863 85.4349 26.4863C85.9859 26.4863 86.4559 26.6388 86.8389 26.9472Z" fill="url(#paint15_linear)"/>
<path fill-rule="evenodd" clip-rule="evenodd" d="M91.642 29.2891H92.612C93.4 29.2891 93.792 28.9108 93.792 28.1554C93.792 27.3861 93.4 27.0031 92.612 27.0031H91.642V29.2891ZM93.771 31.9615L92.431 29.6976H91.642V31.9615H91.147V26.5317H92.646C93.197 26.5317 93.607 26.6772 93.878 26.9624C94.15 27.251 94.283 27.6398 94.283 28.1252C94.283 28.5768 94.171 28.9375 93.943 29.2041C93.71 29.4718 93.379 29.6301 92.948 29.6825L94.326 31.9615H93.771Z" fill="url(#paint16_linear)"/>
<path fill-rule="evenodd" clip-rule="evenodd" d="M100.271 30.2064L99.306 27.2779L98.328 30.2064H100.271ZM100.418 30.6382H98.191L97.7469 31.9616H97.225L99.03 26.6541H99.577L101.383 31.9616H100.853L100.418 30.6382Z" fill="url(#paint17_linear)"/>
<path fill-rule="evenodd" clip-rule="evenodd" d="M106.892 28.9457C107.073 28.7548 107.168 28.4766 107.168 28.1182C107.168 27.7492 107.073 27.4664 106.892 27.2755C106.707 27.0823 106.401 26.9845 105.983 26.9845H105.053V29.2367H105.983C106.401 29.2367 106.707 29.1389 106.892 28.9457ZM105.053 29.6976V31.9615H104.557V26.5317H106.022C106.573 26.5317 106.983 26.6738 107.254 26.9554C107.526 27.2383 107.659 27.6246 107.659 28.1182C107.659 28.6221 107.521 29.0109 107.241 29.2844C106.961 29.5603 106.556 29.6976 106.022 29.6976H105.053Z" fill="url(#paint18_linear)"/>
<path d="M114.56 26.5317V31.9615H114.073V29.3892H111.424V31.9615H110.929V26.5317H111.424V28.9434H114.073V26.5317H114.56Z" fill="url(#paint19_linear)"/>
<path d="M118.61 26.5317V31.9615H118.114V26.5317H118.61Z" fill="url(#paint20_linear)"/>
<path d="M125.769 26.952C126.153 27.2686 126.424 27.7016 126.579 28.2568H126.067C125.937 27.868 125.722 27.5561 125.42 27.3256C125.123 27.0929 124.748 26.9776 124.304 26.9776C123.968 26.9776 123.663 27.0707 123.387 27.2558C123.111 27.442 122.896 27.7051 122.737 28.0484C122.581 28.3941 122.5 28.7922 122.5 29.2519C122.5 29.7082 122.581 30.1063 122.737 30.4473C122.896 30.7907 123.111 31.0537 123.387 31.2376C123.663 31.4226 123.968 31.5158 124.304 31.5158C124.748 31.5158 125.123 31.3994 125.42 31.169C125.722 30.9362 125.937 30.6277 126.067 30.2366H126.579C126.424 30.7906 126.153 31.2271 125.769 31.5426C125.386 31.8591 124.899 32.0163 124.313 32.0163C123.865 32.0163 123.465 31.8964 123.111 31.6613C122.758 31.425 122.487 31.0967 122.293 30.6801C122.099 30.2622 122 29.785 122 29.2519C122 28.713 122.099 28.2311 122.293 27.8098C122.487 27.3884 122.758 27.0626 123.111 26.8298C123.465 26.5947 123.865 26.4783 124.313 26.4783C124.899 26.4783 125.386 26.6365 125.769 26.952Z" fill="url(#paint21_linear)"/>
<path d="M130.004 28.7573C130.159 28.5827 130.348 28.4966 130.572 28.4966C130.797 28.4966 130.986 28.5827 131.141 28.7573C131.296 28.9331 131.374 29.1461 131.374 29.3963C131.374 29.6431 131.296 29.8502 131.141 30.0213C130.986 30.1889 130.797 30.2739 130.572 30.2739C130.348 30.2739 130.159 30.1889 130.004 30.0213C129.849 29.8502 129.771 29.6431 129.771 29.3963C129.771 29.1461 129.849 28.9331 130.004 28.7573Z" fill="url(#paint22_linear)"/>
<path d="M41.779 41.9424C41.934 41.7666 42.124 41.6816 42.348 41.6816C42.572 41.6816 42.761 41.7666 42.916 41.9424C43.071 42.117 43.149 42.3311 43.149 42.5814C43.149 42.827 43.071 43.0353 42.916 43.2053C42.761 43.374 42.572 43.459 42.348 43.459C42.124 43.459 41.934 43.374 41.779 43.2053C41.624 43.0353 41.547 42.827 41.547 42.5814C41.547 42.3311 41.624 42.117 41.779 41.9424Z" fill="url(#paint23_linear)"/>
<path fill-rule="evenodd" clip-rule="evenodd" d="M48.973 44.4039C49.176 44.2154 49.279 43.9558 49.279 43.6218C49.279 43.2935 49.172 43.0328 48.965 42.8396C48.758 42.6464 48.469 42.551 48.103 42.551H46.996V44.6845H48.12C48.482 44.6845 48.766 44.589 48.973 44.4039ZM46.996 42.1424H48.12C48.461 42.1424 48.719 42.0551 48.9 41.877C49.077 41.6989 49.167 41.458 49.167 41.1495C49.167 40.8469 49.077 40.6083 48.905 40.4326C48.728 40.2568 48.456 40.1695 48.09 40.1695H46.996V42.1424ZM49.486 42.8047C49.675 43.0503 49.77 43.3436 49.77 43.6823C49.77 44.1176 49.636 44.4715 49.369 44.7426C49.098 45.0104 48.711 45.1465 48.202 45.1465H46.501V39.7156H48.181C48.672 39.7156 49.042 39.839 49.288 40.0811C49.533 40.3255 49.658 40.6537 49.658 41.0646C49.658 41.4184 49.572 41.7013 49.404 41.9143C49.232 42.1273 49.012 42.2681 48.745 42.3356C49.047 42.4008 49.297 42.5591 49.486 42.8047Z" fill="url(#paint24_linear)"/>
<path fill-rule="evenodd" clip-rule="evenodd" d="M53.5909 42.473H54.5609C55.3489 42.473 55.7409 42.0947 55.7409 41.3404C55.7409 40.5711 55.3489 40.187 54.5609 40.187H53.5909V42.473ZM55.7189 45.1465L54.3799 42.8815H53.5909V45.1465H53.0959V39.7156H54.5949C55.1469 39.7156 55.5559 39.8611 55.8269 40.1474C56.0979 40.4349 56.2319 40.8236 56.2319 41.3102C56.2319 41.7618 56.1199 42.1226 55.8919 42.388C55.6589 42.6569 55.3269 42.814 54.8969 42.8675L56.2749 45.1465H55.7189Z" fill="url(#paint25_linear)"/>
<path fill-rule="evenodd" clip-rule="evenodd" d="M62.224 43.3914L61.259 40.463L60.281 43.3914H62.224ZM62.371 43.8221H60.144L59.7 45.1466H59.178L60.9839 39.8391H61.53L63.336 45.1466H62.806L62.371 43.8221Z" fill="url(#paint26_linear)"/>
<path d="M70.1759 45.1466H69.6809L67.0059 40.6108V45.1466H66.5099V39.7239H67.0059L69.6809 44.2691V39.7239H70.1759V45.1466Z" fill="url(#paint27_linear)"/>
<path fill-rule="evenodd" clip-rule="evenodd" d="M76.746 44.0699C77.108 43.6788 77.289 43.1306 77.289 42.4287C77.289 41.7234 77.108 41.1752 76.746 40.7841C76.384 40.3907 75.859 40.1952 75.169 40.1952H74.221V44.66H75.169C75.859 44.66 76.384 44.4645 76.746 44.0699ZM77.483 43.8801C77.284 44.2864 76.991 44.5994 76.604 44.8171C76.216 45.0382 75.751 45.1465 75.204 45.1465H73.726V39.7156H75.204C76.031 39.7156 76.664 39.9566 77.112 40.4349C77.556 40.9168 77.78 41.5814 77.78 42.4287C77.78 42.9874 77.681 43.4716 77.483 43.8801Z" fill="url(#paint28_linear)"/>
<path d="M81.6569 39.7156V45.1465H81.1609V39.7156H81.6569Z" fill="url(#paint29_linear)"/>
<path d="M88.8729 45.1466H88.3769L85.7019 40.6108V45.1466H85.2069V39.7239H85.7019L88.3769 44.2691V39.7239H88.8729V45.1466Z" fill="url(#paint30_linear)"/>
<path d="M96.0359 40.1325C96.4239 40.441 96.6869 40.8588 96.8289 41.3884H96.3249C96.1999 41.0218 95.9849 40.7285 95.6879 40.5027C95.3899 40.2745 95.0369 40.1628 94.6319 40.1628C94.2789 40.1628 93.9599 40.2548 93.6759 40.441C93.3909 40.6261 93.1679 40.8891 93.0079 41.2325C92.8439 41.5781 92.7619 41.9774 92.7619 42.436C92.7619 42.9027 92.8439 43.3089 93.0079 43.6523C93.1759 43.9956 93.3999 44.261 93.6889 44.4437C93.9769 44.63 94.3089 44.7219 94.6789 44.7219C95.0069 44.7219 95.3079 44.6428 95.5799 44.4798C95.8559 44.3192 96.0749 44.0829 96.2429 43.7744C96.4109 43.466 96.5099 43.1052 96.5359 42.6897H94.5069V42.2812H96.9629V42.7596C96.9279 43.2205 96.8119 43.6371 96.6099 44.0061C96.4109 44.3762 96.1399 44.6672 95.7999 44.8802C95.4589 45.0932 95.0709 45.2014 94.6359 45.2014C94.1749 45.2014 93.7619 45.0839 93.3999 44.8499C93.0429 44.6171 92.7619 44.2889 92.5639 43.8676C92.3619 43.4462 92.2629 42.9702 92.2629 42.436C92.2629 41.9017 92.3619 41.4233 92.5639 41.002C92.7619 40.5807 93.0379 40.2547 93.3999 40.0219C93.7579 39.7868 94.1669 39.6704 94.6319 39.6704C95.1839 39.6704 95.6529 39.8241 96.0359 40.1325Z" fill="url(#paint31_linear)"/>
<path d="M100.383 41.9424C100.538 41.7666 100.728 41.6816 100.952 41.6816C101.176 41.6816 101.365 41.7666 101.52 41.9424C101.675 42.117 101.753 42.3311 101.753 42.5814C101.753 42.827 101.675 43.0353 101.52 43.2053C101.365 43.374 101.176 43.459 100.952 43.459C100.728 43.459 100.538 43.374 100.383 43.2053C100.228 43.0353 100.151 42.827 100.151 42.5814C100.151 42.3311 100.228 42.117 100.383 41.9424Z" fill="url(#paint32_linear)"/>
<path fill-rule="evenodd" clip-rule="evenodd" d="M107.439 42.1296C107.62 41.9399 107.715 41.6617 107.715 41.3032C107.715 40.9342 107.62 40.6502 107.439 40.4605C107.254 40.2673 106.948 40.1695 106.53 40.1695H105.6V42.4206H106.53C106.948 42.4206 107.254 42.3228 107.439 42.1296ZM105.6 42.8815V45.1465H105.105V39.7156H106.569C107.12 39.7156 107.53 39.8588 107.801 40.1393C108.072 40.4233 108.206 40.8085 108.206 41.3032C108.206 41.806 108.068 42.1948 107.788 42.4683C107.508 42.7442 107.103 42.8815 106.569 42.8815H105.6Z" fill="url(#paint33_linear)"/>
<path fill-rule="evenodd" clip-rule="evenodd" d="M114.151 43.3914L113.186 40.463L112.208 43.3914H114.151ZM114.298 43.8221H112.07L111.627 45.1466H111.105L112.91 39.8391H113.457L115.262 45.1466H114.733L114.298 43.8221Z" fill="url(#paint34_linear)"/>
<path d="M122.047 40.137C122.431 40.4525 122.702 40.8866 122.857 41.4406H122.344C122.215 41.0519 122 40.7412 121.698 40.5107C121.401 40.2779 121.026 40.1627 120.583 40.1627C120.247 40.1627 119.941 40.2546 119.665 40.4409C119.389 40.6259 119.174 40.889 119.014 41.2323C118.86 41.578 118.778 41.9773 118.778 42.4359C118.778 42.8921 118.86 43.2913 119.014 43.6312C119.174 43.9757 119.389 44.2388 119.665 44.4215C119.941 44.6066 120.247 44.6997 120.583 44.6997C121.026 44.6997 121.401 44.5845 121.698 44.354C122 44.1212 122.215 43.8128 122.344 43.4217H122.857C122.702 43.9757 122.431 44.411 122.047 44.7276C121.664 45.0431 121.177 45.2013 120.591 45.2013C120.143 45.2013 119.742 45.0815 119.389 44.8452C119.036 44.6101 118.765 44.2807 118.571 43.8651C118.377 43.4461 118.278 42.9701 118.278 42.4359C118.278 41.8969 118.377 41.415 118.571 40.9949C118.765 40.5735 119.036 40.2477 119.389 40.0137C119.742 39.7786 120.143 39.6633 120.591 39.6633C121.177 39.6633 121.664 39.8216 122.047 40.137Z" fill="url(#paint35_linear)"/>
<path d="M127.169 42.4206L129.478 45.1465H128.875L126.738 42.5964V45.1465H126.243V39.7156H126.738V42.2658L128.875 39.7156H129.478L127.169 42.4206Z" fill="url(#paint36_linear)"/>
<path fill-rule="evenodd" clip-rule="evenodd" d="M135.298 43.3914L134.333 40.463L133.355 43.3914H135.298ZM135.445 43.8221H133.217L132.774 45.1466H132.253L134.057 39.8391H134.605L136.41 45.1466H135.88L135.445 43.8221Z" fill="url(#paint37_linear)"/>
<path d="M143.199 40.1325C143.587 40.441 143.849 40.8588 143.991 41.3884H143.488C143.363 41.0218 143.147 40.7285 142.85 40.5027C142.552 40.2745 142.199 40.1628 141.795 40.1628C141.441 40.1628 141.122 40.2548 140.838 40.441C140.554 40.6261 140.33 40.8891 140.17 41.2325C140.007 41.5781 139.925 41.9774 139.925 42.436C139.925 42.9027 140.007 43.3089 140.17 43.6523C140.339 43.9956 140.562 44.261 140.851 44.4437C141.14 44.63 141.471 44.7219 141.842 44.7219C142.169 44.7219 142.471 44.6428 142.742 44.4798C143.018 44.3192 143.238 44.0829 143.405 43.7744C143.573 43.466 143.673 43.1052 143.698 42.6897H141.67V42.2812H144.125V42.7596C144.091 43.2205 143.974 43.6371 143.772 44.0061C143.573 44.3762 143.302 44.6672 142.962 44.8802C142.622 45.0932 142.234 45.2014 141.799 45.2014C141.338 45.2014 140.924 45.0839 140.562 44.8499C140.205 44.6171 139.925 44.2889 139.727 43.8676C139.524 43.4462 139.425 42.9702 139.425 42.436C139.425 41.9017 139.524 41.4233 139.727 41.002C139.925 40.5807 140.2 40.2547 140.562 40.0219C140.92 39.7868 141.329 39.6704 141.795 39.6704C142.346 39.6704 142.815 39.8241 143.199 40.1325Z" fill="url(#paint38_linear)"/>
<path d="M148.007 39.7156V45.1465H147.511V39.7156H148.007Z" fill="url(#paint39_linear)"/>
<path d="M155.217 45.1466H154.722L152.047 40.6108V45.1466H151.552V39.7239H152.047L154.722 44.2691V39.7239H155.217V45.1466Z" fill="url(#paint40_linear)"/>
<path d="M162.382 40.1325C162.769 40.441 163.032 40.8588 163.174 41.3884H162.67C162.545 41.0218 162.33 40.7285 162.032 40.5027C161.736 40.2745 161.382 40.1628 160.977 40.1628C160.624 40.1628 160.305 40.2548 160.021 40.441C159.737 40.6261 159.512 40.8891 159.353 41.2325C159.19 41.5781 159.108 41.9774 159.108 42.436C159.108 42.9027 159.19 43.3089 159.353 43.6523C159.521 43.9956 159.745 44.261 160.034 44.4437C160.322 44.63 160.654 44.7219 161.025 44.7219C161.352 44.7219 161.654 44.6428 161.925 44.4798C162.201 44.3192 162.42 44.0829 162.589 43.7744C162.757 43.466 162.856 43.1052 162.882 42.6897H160.852V42.2812H163.308V42.7596C163.273 43.2205 163.157 43.6371 162.955 44.0061C162.757 44.3762 162.485 44.6672 162.145 44.8802C161.804 45.0932 161.417 45.2014 160.982 45.2014C160.521 45.2014 160.107 45.0839 159.745 44.8499C159.387 44.6171 159.108 44.2889 158.909 43.8676C158.707 43.4462 158.608 42.9702 158.608 42.436C158.608 41.9017 158.707 41.4233 158.909 41.002C159.108 40.5807 159.384 40.2547 159.745 40.0219C160.103 39.7868 160.512 39.6704 160.977 39.6704C161.529 39.6704 161.998 39.8241 162.382 40.1325Z" fill="url(#paint41_linear)"/>
<path d="M166.733 41.9424C166.887 41.7666 167.077 41.6816 167.301 41.6816C167.525 41.6816 167.715 41.7666 167.87 41.9424C168.025 42.117 168.102 42.3311 168.102 42.5814C168.102 42.827 168.025 43.0353 167.87 43.2053C167.715 43.374 167.525 43.459 167.301 43.459C167.077 43.459 166.887 43.374 166.733 43.2053C166.577 43.0353 166.5 42.827 166.5 42.5814C166.5 42.3311 166.577 42.117 166.733 41.9424Z" fill="url(#paint42_linear)"/>
<path d="M49.234 21.0215C49.899 21.032 50.5 21.3044 51.037 21.8398L49.736 22.9665C49.473 22.7896 49.196 22.7127 48.902 22.736C48.606 22.7593 48.323 22.8896 48.051 23.1259C47.692 23.4378 47.494 23.8347 47.461 24.3177C47.428 24.8019 47.568 25.2885 47.882 25.7774C48.194 26.2662 48.553 26.5607 48.96 26.6585C49.366 26.7574 49.747 26.6514 50.106 26.3395C50.38 26.1032 50.569 25.825 50.672 25.5026C50.776 25.1814 50.794 24.852 50.727 24.5133L52.026 23.3866C52.31 24.1327 52.361 24.8799 52.181 25.6272C52 26.3744 51.587 27.0285 50.941 27.5884C50.447 28.0167 49.936 28.2716 49.408 28.3543C48.88 28.4358 48.374 28.3473 47.891 28.0877C47.409 27.8282 46.988 27.4185 46.632 26.8609C46.275 26.3034 46.057 25.718 45.983 25.1046C45.906 24.4924 45.979 23.9034 46.197 23.3377C46.416 22.7709 46.772 22.2751 47.265 21.8479C47.911 21.2869 48.568 21.0111 49.234 21.0215Z" fill="url(#paint43_linear)"/>
<path fill-rule="evenodd" clip-rule="evenodd" d="M56.265 18.7452L57.081 18.1807C57.342 18.0003 57.502 17.8024 57.56 17.5894C57.618 17.3753 57.582 17.1437 57.455 16.8922C57.332 16.6525 57.174 16.5081 56.978 16.4592C56.782 16.4092 56.555 16.4732 56.3 16.6501L55.483 17.2158L56.265 18.7452ZM59.42 21.0056L57.076 19.5378L56.775 19.745L57.939 22.0286L56.6219 22.9388L53.538 16.8945L55.7859 15.3395C56.2179 15.0404 56.624 14.8716 57.007 14.8308C57.388 14.7901 57.7269 14.8623 58.0229 15.0474C58.3189 15.2313 58.562 15.5094 58.75 15.8796C58.975 16.3195 59.057 16.7677 58.995 17.2263C58.933 17.6849 58.725 18.1155 58.367 18.5171L60.874 19.9987L59.42 21.0056Z" fill="url(#paint44_linear)"/>
<path d="M63.6029 12.0258L64.1429 13.3562L66.0789 12.2889L66.5499 13.4481L64.6149 14.5154L65.1879 15.9262L67.3669 14.7262L67.8679 15.9576L64.3049 17.9212L61.7219 11.5649L65.2819 9.60254L65.7809 10.8247L63.6029 12.0258Z" fill="url(#paint45_linear)"/>
<path fill-rule="evenodd" clip-rule="evenodd" d="M74.0919 10.3486L72.6019 8.22326L72.5989 10.9701L74.0919 10.3486ZM74.8369 11.4124L72.6009 12.3423V13.7042L71.0819 14.335L71.2489 6.85331L72.9109 6.16187L77.1139 11.8267L75.5789 12.4657L74.8369 11.4124Z" fill="url(#paint46_linear)"/>
<path d="M83.594 2.56763L83.871 3.87933L82.202 4.3612L83.374 9.87247L81.878 10.3031L80.706 4.79071L79.055 5.26675L78.776 3.95385L83.594 2.56763Z" fill="url(#paint47_linear)"/>
<path d="M89.278 1.3584L90.2599 8.29426L88.748 8.58524L87.766 1.64817L89.278 1.3584Z" fill="url(#paint48_linear)"/>
<path d="M95.037 0.505028L96.938 5.63801L98.127 0.223351L99.761 0.0732422L98.037 7.28382L96.064 7.46419L93.403 0.655209L95.037 0.505028Z" fill="url(#paint49_linear)"/>
<path d="M105.53 1.38509L105.506 2.85627L107.647 2.90167L107.627 4.18318L105.486 4.13778L105.461 5.69976L107.872 5.74984L107.85 7.11276L103.908 7.03014L104.019 0L107.959 0.0826206L107.939 1.4351L105.53 1.38509Z" fill="url(#paint50_linear)"/>
<path d="M121.116 7.92977C120.906 8.20562 120.623 8.40346 120.269 8.52218C119.917 8.64323 119.507 8.65606 119.041 8.56644C118.341 8.43026 117.791 8.12992 117.39 7.66202C116.991 7.19528 116.821 6.61799 116.877 5.93011L118.484 6.24091C118.469 6.50745 118.526 6.72976 118.647 6.90785C118.771 7.08709 118.943 7.19761 119.168 7.24067C119.362 7.27792 119.523 7.24888 119.652 7.15343C119.781 7.05683 119.859 6.91016 119.888 6.71461C119.913 6.5377 119.883 6.38053 119.796 6.24319C119.71 6.10584 119.596 5.98481 119.453 5.87889C119.311 5.77413 119.112 5.6438 118.856 5.48667C118.482 5.25854 118.181 5.05135 117.95 4.86279C117.72 4.67307 117.535 4.42162 117.395 4.10969C117.256 3.79659 117.217 3.41836 117.281 2.97374C117.339 2.56054 117.485 2.22299 117.717 1.95878C117.947 1.69457 118.241 1.51417 118.596 1.41873C118.954 1.32328 119.345 1.3174 119.776 1.40004C120.47 1.53506 120.996 1.82493 121.354 2.27072C121.711 2.71651 121.871 3.26468 121.833 3.91532L120.196 3.59876C120.2 3.36481 120.151 3.16926 120.05 3.01097C119.948 2.85267 119.794 2.75487 119.589 2.71529C119.411 2.68038 119.26 2.70488 119.137 2.78868C119.014 2.87248 118.937 3.0156 118.908 3.21812C118.885 3.38107 118.912 3.53008 118.994 3.66277C119.075 3.79546 119.184 3.91304 119.32 4.01314C119.458 4.1144 119.656 4.24707 119.917 4.41118C120.296 4.63931 120.603 4.85115 120.835 5.04785C121.067 5.24456 121.254 5.50063 121.397 5.81722C121.539 6.13498 121.579 6.5179 121.513 6.96951C121.461 7.33615 121.328 7.65625 121.116 7.92977Z" fill="url(#paint51_linear)"/>
<path d="M131.005 4.45779L130.707 5.76608L129.044 5.25281L127.794 10.7407L126.304 10.2809L127.554 4.79303L125.909 4.28438L126.208 2.97729L131.005 4.45779Z" fill="url(#paint52_linear)"/>
<path d="M136.527 6.59126L135.304 10.3915C135.164 10.8245 135.144 11.197 135.248 11.5031C135.349 11.8092 135.567 12.0361 135.903 12.1816C136.238 12.3283 136.532 12.3248 136.782 12.1723C137.033 12.0198 137.227 11.7254 137.366 11.2913L138.591 7.49213L140.026 8.11836L138.801 11.9174C138.602 12.539 138.324 13.0139 137.969 13.3444C137.613 13.6738 137.212 13.8635 136.766 13.9136C136.32 13.9625 135.859 13.8833 135.384 13.675C134.908 13.4689 134.524 13.1803 134.228 12.8102C133.932 12.4401 133.749 11.9966 133.68 11.4775C133.612 10.9595 133.677 10.3903 133.878 9.76764L135.101 5.96973L136.527 6.59126Z" fill="url(#paint53_linear)"/>
<path fill-rule="evenodd" clip-rule="evenodd" d="M145.7 16.673C146.132 16.5333 146.471 16.1783 146.717 15.6091C146.961 15.04 147.005 14.5128 146.843 14.0251C146.682 13.5385 146.335 13.1393 145.802 12.8274L145.153 12.4479L143.603 16.0375L144.253 16.4169C144.786 16.7289 145.269 16.815 145.7 16.673ZM147.037 17.8509C146.595 18.1884 146.092 18.3607 145.532 18.3665C144.971 18.3735 144.389 18.2001 143.786 17.8474L141.648 16.5973L144.36 10.3145L146.497 11.5634C147.105 11.9195 147.574 12.3571 147.905 12.8774C148.235 13.3965 148.418 13.9622 148.45 14.5756C148.483 15.1878 148.367 15.8024 148.1 16.4193C147.836 17.0362 147.48 17.5134 147.037 17.8509Z" fill="url(#paint54_linear)"/>
<path d="M154.635 16.87L151.469 22.8573L150.165 21.9226L153.33 15.9365L154.635 16.87Z" fill="url(#paint55_linear)"/>
<path fill-rule="evenodd" clip-rule="evenodd" d="M158.963 22.6886C158.54 22.7724 158.169 23.0657 157.849 23.565C157.534 24.0597 157.399 24.5555 157.45 25.0537C157.499 25.5518 157.726 25.9755 158.129 26.3235C158.526 26.6681 158.938 26.7984 159.366 26.7123C159.792 26.6285 160.162 26.3375 160.48 25.844C160.795 25.3482 160.929 24.8523 160.879 24.3541C160.828 23.8571 160.603 23.4335 160.2 23.0855C159.798 22.7363 159.386 22.6036 158.963 22.6886ZM162.078 23.3171C162.31 23.9025 162.399 24.5124 162.343 25.1456C162.288 25.7811 162.083 26.3736 161.73 26.9265C161.376 27.4805 160.944 27.8786 160.434 28.123C159.925 28.3674 159.395 28.4442 158.847 28.3523C158.298 28.2615 157.787 28.0112 157.312 27.5992C156.839 27.1895 156.485 26.6902 156.253 26.1047C156.021 25.5193 155.932 24.907 155.986 24.2692C156.041 23.6302 156.246 23.0343 156.599 22.4814C156.953 21.9286 157.383 21.5316 157.891 21.2895C158.399 21.0474 158.928 20.9729 159.476 21.0637C160.024 21.1545 160.536 21.4059 161.011 21.8168C161.49 22.2311 161.845 22.7316 162.078 23.3171Z" fill="url(#paint56_linear)"/>
<defs>
<linearGradient id="paint0_linear" x1="0" y1="86.1084" x2="50.631" y2="86.1084" gradientUnits="userSpaceOnUse">
<stop stop-color="white"/>
<stop offset="1" stop-color="white"/>
</linearGradient>
<linearGradient id="paint1_linear" x1="161.657" y1="86.8106" x2="208.532" y2="86.8106" gradientUnits="userSpaceOnUse">
<stop stop-color="white"/>
<stop offset="1" stop-color="white"/>
</linearGradient>
<linearGradient id="paint2_linear" x1="60.0249" y1="99.7483" x2="112.177" y2="99.7483" gradientUnits="userSpaceOnUse">
<stop stop-color="white"/>
<stop offset="1" stop-color="white"/>
</linearGradient>
<linearGradient id="paint3_linear" x1="100.03" y1="78.509" x2="152.182" y2="78.509" gradientUnits="userSpaceOnUse">
<stop stop-color="white"/>
<stop offset="1" stop-color="white"/>
</linearGradient>
<linearGradient id="paint4_linear" x1="60.7019" y1="70.3059" x2="62.6739" y2="70.3059" gradientUnits="userSpaceOnUse">
<stop stop-color="white"/>
<stop offset="1" stop-color="white"/>
</linearGradient>
<linearGradient id="paint5_linear" x1="66.1089" y1="70.3059" x2="73.4309" y2="70.3059" gradientUnits="userSpaceOnUse">
<stop stop-color="white"/>
<stop offset="1" stop-color="white"/>
</linearGradient>
<linearGradient id="paint6_linear" x1="76.6189" y1="70.3059" x2="81.6909" y2="70.3059" gradientUnits="userSpaceOnUse">
<stop stop-color="white"/>
<stop offset="1" stop-color="white"/>
</linearGradient>
<linearGradient id="paint7_linear" x1="84.2909" y1="70.3399" x2="92.5279" y2="70.3399" gradientUnits="userSpaceOnUse">
<stop stop-color="white"/>
<stop offset="1" stop-color="white"/>
</linearGradient>
<linearGradient id="paint8_linear" x1="119.189" y1="96.4518" x2="126.515" y2="96.4518" gradientUnits="userSpaceOnUse">
<stop stop-color="white"/>
<stop offset="1" stop-color="white"/>
</linearGradient>
<linearGradient id="paint9_linear" x1="129.033" y1="96.4518" x2="134.101" y2="96.4518" gradientUnits="userSpaceOnUse">
<stop stop-color="white"/>
<stop offset="1" stop-color="white"/>
</linearGradient>
<linearGradient id="paint10_linear" x1="119.189" y1="112.514" x2="125.283" y2="112.514" gradientUnits="userSpaceOnUse">
<stop stop-color="white"/>
<stop offset="1" stop-color="white"/>
</linearGradient>
<linearGradient id="paint11_linear" x1="129.033" y1="112.514" x2="131.001" y2="112.514" gradientUnits="userSpaceOnUse">
<stop stop-color="white"/>
<stop offset="1" stop-color="white"/>
</linearGradient>
<linearGradient id="paint12_linear" x1="134.101" y1="112.533" x2="142.015" y2="112.533" gradientUnits="userSpaceOnUse">
<stop stop-color="white"/>
<stop offset="1" stop-color="white"/>
</linearGradient>
<linearGradient id="paint13_linear" x1="144.924" y1="112.539" x2="152.159" y2="112.539" gradientUnits="userSpaceOnUse">
<stop stop-color="white"/>
<stop offset="1" stop-color="white"/>
</linearGradient>
<linearGradient id="paint14_linear" x1="78.271" y1="29.3852" x2="79.873" y2="29.3852" gradientUnits="userSpaceOnUse">
<stop stop-color="white"/>
<stop offset="1" stop-color="white"/>
</linearGradient>
<linearGradient id="paint15_linear" x1="83.0659" y1="29.2513" x2="87.7649" y2="29.2513" gradientUnits="userSpaceOnUse">
<stop stop-color="white"/>
<stop offset="1" stop-color="white"/>
</linearGradient>
<linearGradient id="paint16_linear" x1="91.147" y1="29.2467" x2="94.326" y2="29.2467" gradientUnits="userSpaceOnUse">
<stop stop-color="white"/>
<stop offset="1" stop-color="white"/>
</linearGradient>
<linearGradient id="paint17_linear" x1="97.225" y1="29.3079" x2="101.383" y2="29.3079" gradientUnits="userSpaceOnUse">
<stop stop-color="white"/>
<stop offset="1" stop-color="white"/>
</linearGradient>
<linearGradient id="paint18_linear" x1="104.557" y1="29.2467" x2="107.659" y2="29.2467" gradientUnits="userSpaceOnUse">
<stop stop-color="white"/>
<stop offset="1" stop-color="white"/>
</linearGradient>
<linearGradient id="paint19_linear" x1="110.929" y1="29.2467" x2="114.56" y2="29.2467" gradientUnits="userSpaceOnUse">
<stop stop-color="white"/>
<stop offset="1" stop-color="white"/>
</linearGradient>
<linearGradient id="paint20_linear" x1="118.114" y1="29.2467" x2="118.61" y2="29.2467" gradientUnits="userSpaceOnUse">
<stop stop-color="white"/>
<stop offset="1" stop-color="white"/>
</linearGradient>
<linearGradient id="paint21_linear" x1="122" y1="29.2473" x2="126.579" y2="29.2473" gradientUnits="userSpaceOnUse">
<stop stop-color="white"/>
<stop offset="1" stop-color="white"/>
</linearGradient>
<linearGradient id="paint22_linear" x1="129.771" y1="29.3852" x2="131.374" y2="29.3852" gradientUnits="userSpaceOnUse">
<stop stop-color="white"/>
<stop offset="1" stop-color="white"/>
</linearGradient>
<linearGradient id="paint23_linear" x1="41.547" y1="42.5703" x2="43.149" y2="42.5703" gradientUnits="userSpaceOnUse">
<stop stop-color="white"/>
<stop offset="1" stop-color="white"/>
</linearGradient>
<linearGradient id="paint24_linear" x1="46.501" y1="42.4311" x2="49.77" y2="42.4311" gradientUnits="userSpaceOnUse">
<stop stop-color="white"/>
<stop offset="1" stop-color="white"/>
</linearGradient>
<linearGradient id="paint25_linear" x1="53.0959" y1="42.4311" x2="56.2749" y2="42.4311" gradientUnits="userSpaceOnUse">
<stop stop-color="white"/>
<stop offset="1" stop-color="white"/>
</linearGradient>
<linearGradient id="paint26_linear" x1="59.178" y1="42.4929" x2="63.336" y2="42.4929" gradientUnits="userSpaceOnUse">
<stop stop-color="white"/>
<stop offset="1" stop-color="white"/>
</linearGradient>
<linearGradient id="paint27_linear" x1="66.5099" y1="42.4353" x2="70.1759" y2="42.4353" gradientUnits="userSpaceOnUse">
<stop stop-color="white"/>
<stop offset="1" stop-color="white"/>
</linearGradient>
<linearGradient id="paint28_linear" x1="73.726" y1="42.4311" x2="77.78" y2="42.4311" gradientUnits="userSpaceOnUse">
<stop stop-color="white"/>
<stop offset="1" stop-color="white"/>
</linearGradient>
<linearGradient id="paint29_linear" x1="81.1609" y1="42.4311" x2="81.6569" y2="42.4311" gradientUnits="userSpaceOnUse">
<stop stop-color="white"/>
<stop offset="1" stop-color="white"/>
</linearGradient>
<linearGradient id="paint30_linear" x1="85.2069" y1="42.4353" x2="88.8729" y2="42.4353" gradientUnits="userSpaceOnUse">
<stop stop-color="white"/>
<stop offset="1" stop-color="white"/>
</linearGradient>
<linearGradient id="paint31_linear" x1="92.2629" y1="42.436" x2="96.9629" y2="42.436" gradientUnits="userSpaceOnUse">
<stop stop-color="white"/>
<stop offset="1" stop-color="white"/>
</linearGradient>
<linearGradient id="paint32_linear" x1="100.151" y1="42.5703" x2="101.753" y2="42.5703" gradientUnits="userSpaceOnUse">
<stop stop-color="white"/>
<stop offset="1" stop-color="white"/>
</linearGradient>
<linearGradient id="paint33_linear" x1="105.105" y1="42.4311" x2="108.206" y2="42.4311" gradientUnits="userSpaceOnUse">
<stop stop-color="white"/>
<stop offset="1" stop-color="white"/>
</linearGradient>
<linearGradient id="paint34_linear" x1="111.105" y1="42.4929" x2="115.262" y2="42.4929" gradientUnits="userSpaceOnUse">
<stop stop-color="white"/>
<stop offset="1" stop-color="white"/>
</linearGradient>
<linearGradient id="paint35_linear" x1="118.278" y1="42.4324" x2="122.857" y2="42.4324" gradientUnits="userSpaceOnUse">
<stop stop-color="white"/>
<stop offset="1" stop-color="white"/>
</linearGradient>
<linearGradient id="paint36_linear" x1="126.243" y1="42.4311" x2="129.478" y2="42.4311" gradientUnits="userSpaceOnUse">
<stop stop-color="white"/>
<stop offset="1" stop-color="white"/>
</linearGradient>
<linearGradient id="paint37_linear" x1="132.253" y1="42.4929" x2="136.41" y2="42.4929" gradientUnits="userSpaceOnUse">
<stop stop-color="white"/>
<stop offset="1" stop-color="white"/>
</linearGradient>
<linearGradient id="paint38_linear" x1="139.425" y1="42.436" x2="144.125" y2="42.436" gradientUnits="userSpaceOnUse">
<stop stop-color="white"/>
<stop offset="1" stop-color="white"/>
</linearGradient>
<linearGradient id="paint39_linear" x1="147.511" y1="42.4311" x2="148.007" y2="42.4311" gradientUnits="userSpaceOnUse">
<stop stop-color="white"/>
<stop offset="1" stop-color="white"/>
</linearGradient>
<linearGradient id="paint40_linear" x1="151.552" y1="42.4353" x2="155.217" y2="42.4353" gradientUnits="userSpaceOnUse">
<stop stop-color="white"/>
<stop offset="1" stop-color="white"/>
</linearGradient>
<linearGradient id="paint41_linear" x1="158.608" y1="42.436" x2="163.308" y2="42.436" gradientUnits="userSpaceOnUse">
<stop stop-color="white"/>
<stop offset="1" stop-color="white"/>
</linearGradient>
<linearGradient id="paint42_linear" x1="166.5" y1="42.5703" x2="168.102" y2="42.5703" gradientUnits="userSpaceOnUse">
<stop stop-color="white"/>
<stop offset="1" stop-color="white"/>
</linearGradient>
<linearGradient id="paint43_linear" x1="45.9532" y1="24.7025" x2="52.2861" y2="24.7025" gradientUnits="userSpaceOnUse">
<stop stop-color="white"/>
<stop offset="1" stop-color="white"/>
</linearGradient>
<linearGradient id="paint44_linear" x1="53.538" y1="18.8794" x2="60.874" y2="18.8794" gradientUnits="userSpaceOnUse">
<stop stop-color="white"/>
<stop offset="1" stop-color="white"/>
</linearGradient>
<linearGradient id="paint45_linear" x1="61.7219" y1="13.7619" x2="67.8679" y2="13.7619" gradientUnits="userSpaceOnUse">
<stop stop-color="white"/>
<stop offset="1" stop-color="white"/>
</linearGradient>
<linearGradient id="paint46_linear" x1="71.0819" y1="10.2485" x2="77.1139" y2="10.2485" gradientUnits="userSpaceOnUse">
<stop stop-color="white"/>
<stop offset="1" stop-color="white"/>
</linearGradient>
<linearGradient id="paint47_linear" x1="78.776" y1="6.43545" x2="83.871" y2="6.43545" gradientUnits="userSpaceOnUse">
<stop stop-color="white"/>
<stop offset="1" stop-color="white"/>
</linearGradient>
<linearGradient id="paint48_linear" x1="87.766" y1="4.97189" x2="90.2599" y2="4.97189" gradientUnits="userSpaceOnUse">
<stop stop-color="white"/>
<stop offset="1" stop-color="white"/>
</linearGradient>
<linearGradient id="paint49_linear" x1="93.403" y1="3.76879" x2="99.761" y2="3.76879" gradientUnits="userSpaceOnUse">
<stop stop-color="white"/>
<stop offset="1" stop-color="white"/>
</linearGradient>
<linearGradient id="paint50_linear" x1="103.908" y1="3.55645" x2="107.959" y2="3.55645" gradientUnits="userSpaceOnUse">
<stop stop-color="white"/>
<stop offset="1" stop-color="white"/>
</linearGradient>
<linearGradient id="paint51_linear" x1="116.867" y1="4.98359" x2="121.839" y2="4.98359" gradientUnits="userSpaceOnUse">
<stop stop-color="white"/>
<stop offset="1" stop-color="white"/>
</linearGradient>
<linearGradient id="paint52_linear" x1="125.909" y1="6.85908" x2="131.005" y2="6.85908" gradientUnits="userSpaceOnUse">
<stop stop-color="white"/>
<stop offset="1" stop-color="white"/>
</linearGradient>
<linearGradient id="paint53_linear" x1="133.654" y1="9.94873" x2="140.026" y2="9.94873" gradientUnits="userSpaceOnUse">
<stop stop-color="white"/>
<stop offset="1" stop-color="white"/>
</linearGradient>
<linearGradient id="paint54_linear" x1="141.648" y1="14.3407" x2="148.455" y2="14.3407" gradientUnits="userSpaceOnUse">
<stop stop-color="white"/>
<stop offset="1" stop-color="white"/>
</linearGradient>
<linearGradient id="paint55_linear" x1="150.165" y1="19.397" x2="154.635" y2="19.397" gradientUnits="userSpaceOnUse">
<stop stop-color="white"/>
<stop offset="1" stop-color="white"/>
</linearGradient>
<linearGradient id="paint56_linear" x1="155.971" y1="24.7082" x2="162.359" y2="24.7082" gradientUnits="userSpaceOnUse">
<stop stop-color="white"/>
<stop offset="1" stop-color="white"/>
</linearGradient>
</defs>
</svg>
