<svg width="143" height="142" viewBox="0 0 143 142" fill="none" xmlns="http://www.w3.org/2000/svg">
<path d="M64.9668 142C62.1759 142 59.3244 141.898 56.4133 141.694C38.3121 140.427 15.8619 138.854 6.35934 119.981C-0.466831 106.422 -0.371665 88.2414 0.292002 78.6106C1.82497 56.3911 8.24148 37.4979 18.8521 23.9722L19.7851 24.781C9.33575 38.1019 3.01196 56.7475 1.49835 78.7025C0.843556 88.1978 0.743565 106.109 7.42862 119.388C16.6143 137.633 38.6927 139.18 56.4327 140.422C74.9178 141.715 90.8998 138.88 103.997 132C130.132 118.267 140.551 84.8715 141.587 58.1974C142.024 46.936 140.651 26.2325 126.539 14.093C122.764 10.8464 118.124 8.26029 112.353 6.18462C97.9881 1.01802 81.9399 1.018 68.0303 1.43088C53.7442 1.85021 41.3466 5.93059 31.1819 13.5583L30.4796 12.5245C40.8434 4.74681 53.466 0.586589 67.9965 0.160003C82.0125 -0.249648 98.1889 -0.253695 112.744 4.98226C118.654 7.10712 123.415 9.76501 127.305 13.1092C141.823 25.5979 143.242 46.7522 142.795 58.249C141.745 85.2852 131.144 119.156 104.537 133.136C93.3214 139.029 80.0417 142 64.9668 142Z" fill="url(#paint0_linear)"/>
<path fill-rule="evenodd" clip-rule="evenodd" d="M20.1988 14.6148C19.3166 15.6607 18.8763 17.0889 18.8763 18.8984C18.8763 20.6661 19.3166 22.0773 20.1988 23.1329C21.0802 24.1893 22.289 24.7166 23.8268 24.7166C25.3444 24.7166 26.5435 24.1893 27.4249 23.1329C28.3063 22.0773 28.7474 20.6661 28.7474 18.8984C28.7474 17.0889 28.3112 15.6607 27.4403 14.6148C26.5686 13.5705 25.3646 13.0472 23.8268 13.0472C22.289 13.0472 21.0802 13.5705 20.1988 14.6148ZM29.4393 8.66848C31.1295 9.67003 32.4625 11.0651 33.4367 12.8537C34.41 14.6431 34.897 16.6583 34.897 18.8984C34.897 21.1402 34.4051 23.1546 33.4213 24.9432C32.4375 26.7326 31.0997 28.1277 29.4087 29.1292C27.7169 30.1316 25.8557 30.6332 23.8268 30.6332C21.7979 30.6332 19.9319 30.1316 18.2296 29.1292C16.5281 28.1277 15.1862 26.7326 14.2024 24.9432C13.2178 23.1546 12.7259 21.1402 12.7259 18.8984C12.7259 16.6583 13.2178 14.6431 14.2024 12.8537C15.1862 11.0651 16.5281 9.67003 18.2296 8.66848C19.9319 7.66612 21.7979 7.16455 23.8268 7.16455C25.8767 7.16455 27.7475 7.66612 29.4393 8.66848Z" fill="url(#paint1_linear)"/>
<path fill-rule="evenodd" clip-rule="evenodd" d="M56.5763 17.7024H59.5591C61.2389 17.7024 62.0799 16.9056 62.0799 15.3098C62.0799 14.5566 61.8703 13.9639 61.4501 13.5325C61.03 13.1019 60.3986 12.8857 59.5591 12.8857H56.5763V17.7024ZM61.5888 30.4064L57.1907 21.969H56.5763V30.4064H50.5178V7.52075H60.0817C61.8235 7.52075 63.3057 7.8385 64.5249 8.47313C65.745 9.11019 66.6619 9.98836 67.278 11.1085C67.8925 12.2293 68.1997 13.4889 68.1997 14.8896C68.1997 16.4847 67.7788 17.8693 66.9393 19.0434C66.0982 20.2183 64.8886 21.0433 63.3105 21.5166L68.2618 30.4064H61.5888Z" fill="url(#paint2_linear)"/>
<path d="M30.5006 51.3996C32.2835 52.8221 33.36 54.7397 33.7286 57.1541H27.3628C27.0346 56.5291 26.5532 56.0332 25.9186 55.6663C25.2815 55.3002 24.5348 55.1171 23.6728 55.1171C22.1963 55.1171 21.0229 55.6405 20.152 56.6848C19.2803 57.7298 18.8457 59.1249 18.8457 60.8715C18.8457 62.8537 19.3118 64.3576 20.2439 65.3801C21.177 66.4043 22.5454 66.9155 24.3493 66.9155C25.3743 66.9155 26.2766 66.6566 27.0556 66.1406C27.8346 65.6228 28.4499 64.8576 28.9007 63.8447H22.8736V59.3192H33.9132V65.6229C33.1335 67.5195 31.8884 69.1412 30.1764 70.4879C28.4652 71.8346 26.3073 72.5079 23.7042 72.5079C21.4898 72.5079 19.5529 72.0176 17.8917 71.037C16.2313 70.0573 14.9548 68.6831 14.0637 66.9155C13.1718 65.1487 12.7259 63.1335 12.7259 60.8715C12.7259 58.6088 13.1718 56.5984 14.0637 54.8421C14.9548 53.0866 16.2208 51.7181 17.8619 50.7376C19.5013 49.757 21.4286 49.2659 23.6421 49.2659C26.4299 49.2659 28.716 49.9771 30.5006 51.3996Z" fill="url(#paint3_linear)"/>
<path d="M33.4511 114.285H27.3942L19.3988 101.517V114.285H13.3403V91.4316H19.3988L27.3942 104.361V91.4316H33.4511V114.285Z" fill="url(#paint4_linear)"/>
<path d="M56.5763 91.3669V114.253H50.5178V91.3669H56.5763Z" fill="url(#paint5_linear)"/>
<path d="M87.0969 92.2558C88.5621 92.9775 89.7572 94.0017 90.6789 95.3266C91.6014 96.6515 92.2272 98.1877 92.5546 99.9327H86.1897C85.8405 99.028 85.2978 98.3224 84.5591 97.8159C83.8221 97.3095 82.9713 97.0555 82.0077 97.0555C80.6747 97.0555 79.5982 97.5789 78.7789 98.624C77.9587 99.6691 77.5483 101.064 77.5483 102.81C77.5483 104.556 77.9587 105.957 78.7789 107.012C79.5982 108.069 80.6747 108.596 82.0077 108.596C82.9713 108.596 83.8221 108.337 84.5591 107.821C85.2978 107.303 85.8405 106.592 86.1897 105.687H92.5546C92.0635 108.359 90.899 110.487 89.0653 112.071C87.2299 113.655 84.9083 114.447 82.0996 114.447C79.9473 114.447 78.0668 113.957 76.4572 112.976C74.8469 111.996 73.6074 110.622 72.7357 108.855C71.8648 107.088 71.4293 105.072 71.4293 102.81C71.4293 100.547 71.8648 98.5321 72.7357 96.7652C73.6074 94.9992 74.8469 93.6251 76.4572 92.6437C78.0668 91.6631 79.9473 91.1729 82.0996 91.1729C83.9648 91.1729 85.63 91.5341 87.0969 92.2558Z" fill="url(#paint6_linear)"/>
<path d="M90.2241 8.22019C90.8071 8.67016 91.2014 9.27901 91.4054 10.0483H90.1733C90.0023 9.61367 89.733 9.2677 89.3628 9.01207C88.9919 8.75724 88.5395 8.62905 88.0024 8.62905C87.575 8.62905 87.1928 8.73469 86.8565 8.94597C86.5211 9.15644 86.255 9.45803 86.0623 9.84913C85.8687 10.241 85.7719 10.6983 85.7719 11.2232C85.7719 11.7401 85.8687 12.195 86.0623 12.5869C86.255 12.978 86.5211 13.2795 86.8565 13.4908C87.1928 13.7013 87.575 13.807 88.0024 13.807C88.5395 13.807 88.9919 13.6795 89.3628 13.4239C89.733 13.1691 90.0023 12.8263 90.1733 12.3973H91.4054C91.2014 13.1666 90.8071 13.7755 90.2241 14.2214C89.6394 14.6674 88.9064 14.8899 88.0234 14.8899C87.3436 14.8899 86.7428 14.7351 86.2195 14.4254C85.6969 14.1158 85.2929 13.6827 85.0075 13.1279C84.7228 12.5731 84.5801 11.9377 84.5801 11.2232C84.5801 10.5079 84.7228 9.87332 85.0075 9.31771C85.2929 8.76372 85.6969 8.32906 86.2195 8.01618C86.7428 7.70249 87.3436 7.54688 88.0234 7.54688C88.9064 7.54688 89.6394 7.77102 90.2241 8.22019Z" fill="url(#paint7_linear)"/>
<path fill-rule="evenodd" clip-rule="evenodd" d="M89.1798 31.4322L87.988 28.0615L86.7961 31.4322H89.1798ZM89.5056 32.3313H86.4695L85.9196 33.8941H84.6761L87.3251 26.7954H88.6597L91.2982 33.8941H90.0556L89.5056 32.3313Z" fill="url(#paint8_linear)"/>
<path d="M90.2958 45.7473V46.6868H87.2081V48.9237H89.7555V49.8229H87.2081V52.9582H86.0469V45.7473H90.2958Z" fill="url(#paint9_linear)"/>
<path d="M87.2283 65.7527V67.938H89.8773V68.8372H87.2283V71.0741H90.1829V72.0241H86.0671V64.8132H90.1829V65.7527H87.2283Z" fill="url(#paint10_linear)"/>
<path d="M60.9066 46.5949C60.0607 45.5764 58.5954 45.5764 57.7495 46.5949C38.9628 69.2136 55.332 73.0448 58.7342 73.5803V65.3711L54.1353 60.2005L55.3965 58.9611L59.5978 63.6841L63.7992 58.9611L65.0612 60.2005L60.4615 65.3711V73.4843C64.7362 72.6585 78.8449 68.1919 60.9066 46.5949Z" fill="url(#paint11_linear)"/>
<defs>
<linearGradient id="paint0_linear" x1="0" y1="71" x2="142.862" y2="71" gradientUnits="userSpaceOnUse">
<stop stop-color="white"/>
<stop offset="1" stop-color="white"/>
</linearGradient>
<linearGradient id="paint1_linear" x1="12.7259" y1="18.8989" x2="34.897" y2="18.8989" gradientUnits="userSpaceOnUse">
<stop stop-color="white"/>
<stop offset="1" stop-color="white"/>
</linearGradient>
<linearGradient id="paint2_linear" x1="50.5178" y1="18.9636" x2="68.2618" y2="18.9636" gradientUnits="userSpaceOnUse">
<stop stop-color="white"/>
<stop offset="1" stop-color="white"/>
</linearGradient>
<linearGradient id="paint3_linear" x1="12.7259" y1="60.8869" x2="33.9132" y2="60.8869" gradientUnits="userSpaceOnUse">
<stop stop-color="white"/>
<stop offset="1" stop-color="white"/>
</linearGradient>
<linearGradient id="paint4_linear" x1="13.3403" y1="102.858" x2="33.4511" y2="102.858" gradientUnits="userSpaceOnUse">
<stop stop-color="white"/>
<stop offset="1" stop-color="white"/>
</linearGradient>
<linearGradient id="paint5_linear" x1="50.5178" y1="102.81" x2="56.5763" y2="102.81" gradientUnits="userSpaceOnUse">
<stop stop-color="white"/>
<stop offset="1" stop-color="white"/>
</linearGradient>
<linearGradient id="paint6_linear" x1="71.4293" y1="102.81" x2="92.5546" y2="102.81" gradientUnits="userSpaceOnUse">
<stop stop-color="white"/>
<stop offset="1" stop-color="white"/>
</linearGradient>
<linearGradient id="paint7_linear" x1="84.5801" y1="11.2184" x2="91.4054" y2="11.2184" gradientUnits="userSpaceOnUse">
<stop stop-color="white"/>
<stop offset="1" stop-color="white"/>
</linearGradient>
<linearGradient id="paint8_linear" x1="84.6761" y1="30.3448" x2="91.2982" y2="30.3448" gradientUnits="userSpaceOnUse">
<stop stop-color="white"/>
<stop offset="1" stop-color="white"/>
</linearGradient>
<linearGradient id="paint9_linear" x1="86.0469" y1="49.3527" x2="90.2958" y2="49.3527" gradientUnits="userSpaceOnUse">
<stop stop-color="white"/>
<stop offset="1" stop-color="white"/>
</linearGradient>
<linearGradient id="paint10_linear" x1="86.0671" y1="68.4187" x2="90.1829" y2="68.4187" gradientUnits="userSpaceOnUse">
<stop stop-color="white"/>
<stop offset="1" stop-color="white"/>
</linearGradient>
<linearGradient id="paint11_linear" x1="48.8798" y1="59.7057" x2="69.7779" y2="59.7057" gradientUnits="userSpaceOnUse">
<stop stop-color="white"/>
<stop offset="1" stop-color="white"/>
</linearGradient>
</defs>
</svg>
