<?xml version="1.0" encoding="utf-8"?>
<!-- Generator: Adobe Illustrator 21.0.0, SVG Export Plug-In . SVG Version: 6.00 Build 0)  -->
<svg version="1.1" xmlns="http://www.w3.org/2000/svg" xmlns:xlink="http://www.w3.org/1999/xlink" x="0px" y="0px"
	 viewBox="0 0 303 195" style="enable-background:new 0 0 303 195;" xml:space="preserve">
<style type="text/css">
	.st0{fill:#FFFFFF;stroke:#F4614D;stroke-width:4;}
	.st1{fill:#F4614D;}
</style>
<g id="contour">
	<path id="layer1_1_" class="st0" d="M2,2h299v178H2V2z"/>
</g>
<g id="logo">
	<g id="layer1">
		<path class="st1" d="M168,148.8c-3.5,0-6.5-0.6-8.9-1.9c-2.3-1.3-4.3-3-5.7-5c-1.4-2.1-2.4-4.5-3.1-7.2c-0.6-2.7-0.9-5.5-0.9-8.3
			v-22.3h2.3v22.3c0,2.5,0.2,5,0.7,7.5c0.5,2.4,1.4,4.7,2.6,6.6c1.3,1.9,3,3.5,5,4.6c2.1,1.1,4.7,1.7,7.8,1.7c3.1,0,5.8-0.6,7.9-1.8
			c2.1-1.2,3.8-2.8,5-4.7c1.2-1.9,2.1-4.1,2.6-6.6c0.5-2.4,0.8-4.9,0.8-7.3v-22.3h2.3v22.3c0,3-0.3,5.9-1,8.6
			c-0.6,2.7-1.7,5.1-3.1,7.2c-1.4,2-3.3,3.6-5.6,4.8C174.3,148.2,171.4,148.8,168,148.8z M251.8,148.5v-16.9l-17.4-27.5h2.4
			l16.1,25.6l16.2-25.6h2.5L254,131.7v16.8H251.8z M227.3,148.5l-11-17.2h-15.5v17.2h-2.3v-44.4H217c1.8,0,3.5,0.4,5.1,1.2
			c1.6,0.8,2.9,1.8,4,3.1c1.2,1.3,2.1,2.8,2.7,4.4c0.7,1.6,1,3.2,1,4.9c0,1.6-0.3,3.2-0.7,4.7c-0.5,1.5-1.2,2.8-2.1,4
			c-0.9,1.2-2,2.2-3.3,2.9c-1.3,0.8-2.7,1.3-4.2,1.5l-0.8,0.1l11.2,17.5H227.3z M200.8,129.3h16.4c1.5,0,2.9-0.3,4.2-1
			c1.2-0.7,2.3-1.5,3.2-2.6c0.9-1.1,1.6-2.4,2-3.8c0.5-1.4,0.7-2.9,0.7-4.3c0-1.5-0.3-3-0.9-4.4c-0.5-1.4-1.3-2.7-2.3-3.7
			c-0.9-1.1-2.1-1.9-3.3-2.5c-1.2-0.7-2.6-1-4.1-1h-16V129.3z M111,148.5v-44.4h28.7v1.9h-26.4v18.9h23.1v1.8h-23.1v19.9h27v1.9H111
			z M73.8,148.5v-44.4h2.3v42.5h27.1v1.9H73.8z M35.8,148.5v-44.4h28.6v1.9H38.1v19h22.3v1.8H38.1v21.6H35.8z M221.9,80.5V36.1h29.6
			v5.3h-23.4v13.9h20.3v5h-20.3v14.9h24v5.3H221.9z M205.5,80.5L179,47.6v32.9h-6.2V36.1h4.9l26.7,33.7V36.1h6.2v44.4H205.5z
			 M159.5,80.5l-4.8-12.4h-18.2l-4.7,12.4h-6.5l17.7-44.4h5.6L166,80.5H159.5z M137.4,63.8h16.3l-8-21.4L137.4,63.8z M91.1,80.5
			V36.1h29.6v5.3H97.3v13.9h20.3v5H97.3v14.9h24v5.3H91.1z M53.7,80.5V36.1h6.2v39.1h24.4v5.3H53.7z M104.3,29.1l3.2-6.2h5.5l-5,7.4
			L104.3,29.1z"/>
		<path class="st1" d="M112.1,23.4l-4.3,6.3l-2.8-0.8l2.8-5.4H112.1 M251,36.6v4.3h-22.4h-1v1v12.9v1h1h19.3v4h-19.3h-1v1v13.9v1h1
			h23V80h-29.2V36.6H251 M177.5,36.6l25.7,32.4l1.8,2.2v-2.9V36.6h5.2V80h-4.5l-25.4-31.6l-1.8-2.2V49v31h-5.2V36.6H177.5
			 M148.2,36.6L165.3,80h-5.4l-4.6-11.7l-0.2-0.6h-0.7h-17.5h-0.7l-0.2,0.6L131.4,80H126l17.3-43.4H148.2 M136.7,64.3h1.5H153h1.4
			l-0.5-1.4l-7.3-19.5l-0.9-2.5l-0.9,2.5L137.2,63L136.7,64.3 M120.2,36.6v4.3H97.8h-1v1v12.9v1h1h19.3v4H97.8h-1v1v13.9v1h1h23V80
			H91.6V36.6H120.2 M59.4,36.6v38.1v1h1h23.4V80H54.2V36.6H59.4 M270.6,104.6l-16.9,26.8l-0.2,0.2v0.3V148h-1.3v-16.3v-0.3l-0.2-0.2
			l-16.9-26.6h1.2l15.6,24.7l0.8,1.3l0.8-1.3l15.6-24.7H270.6 M217,104.6c1.8,0,3.4,0.4,4.9,1.1c1.5,0.7,2.8,1.8,3.9,3
			c1.1,1.2,2,2.6,2.6,4.3c0.6,1.5,0.9,3.1,0.9,4.7c0,1.6-0.2,3.1-0.7,4.5c-0.5,1.4-1.2,2.7-2,3.9c-0.9,1.1-1.9,2.1-3.1,2.8
			c-1.2,0.7-2.5,1.2-4,1.5l-1.5,0.2l0.8,1.3L229,148h-1.4l-10.7-16.7l-0.3-0.5h-0.5h-14.7h-1v1V148h-1.3v-43.4H217 M200.3,129.8h1
			h15.9c1.6,0,3.1-0.4,4.4-1.1c1.3-0.7,2.4-1.6,3.4-2.8c0.9-1.2,1.6-2.5,2.1-3.9c0.5-1.5,0.8-3,0.8-4.5c0-1.6-0.3-3.1-0.9-4.5
			c-0.6-1.5-1.4-2.8-2.4-3.9c-1-1.1-2.2-2-3.5-2.7c-1.3-0.7-2.8-1.1-4.4-1.1h-15.5h-1v1v22.3V129.8 M185.9,104.6v21.8
			c0,2.9-0.3,5.8-1,8.5c-0.6,2.6-1.6,5-3,7c-1.4,2-3.2,3.5-5.5,4.7c-2.2,1.2-5.1,1.7-8.4,1.7c-3.4,0-6.3-0.6-8.6-1.8
			c-2.3-1.2-4.2-2.9-5.5-4.9c-1.4-2.1-2.4-4.4-3-7c-0.6-2.6-0.9-5.4-0.9-8.2v-21.8h1.3v21.8c0,2.6,0.2,5.1,0.7,7.6
			c0.5,2.5,1.4,4.8,2.7,6.7c1.3,2,3.1,3.6,5.2,4.8c2.1,1.2,4.8,1.8,8,1.8c3.2,0,6-0.6,8.1-1.9c2.2-1.2,3.9-2.9,5.2-4.9
			c1.3-2,2.1-4.2,2.6-6.7c0.5-2.4,0.8-5,0.8-7.4v-21.8H185.9 M139.2,104.6v0.9h-25.4h-1v1v17.9v1h1h22.1v0.8h-22.1h-1v1v18.9v1h1h26
			v0.9h-28.3v-43.4H139.2 M75.6,104.6v41.5v1h1h26.1v0.9H74.3v-43.4H75.6 M63.9,104.6v0.9H38.6h-1v1v18v1h1h21.3v0.8H38.6h-1v1V148
			h-1.3v-43.4H63.9 M114,22.4h-6.7l-3.6,7l4.6,1.4L114,22.4L114,22.4z M252,35.6h-30.6V81h31.2v-6.3h-24V60.8h20.3v-6h-20.3V41.9
			H252V35.6L252,35.6z M178,35.6h-5.6V81h7.2V49l25.7,32h6V35.6H204v32.7L178,35.6L178,35.6z M148.8,35.6h-6.3l-18,45.4h7.6
			l4.7-12.4h17.5l4.8,12.4h7.6L148.8,35.6L148.8,35.6z M138.1,63.3l7.6-19.5l7.3,19.5H138.1L138.1,63.3z M121.2,35.6H90.6V81h31.2
			v-6.3h-24V60.8h20.3v-6H97.8V41.9h23.4V35.6L121.2,35.6z M60.4,35.6h-7.2V81h31.6v-6.3H60.4V35.6L60.4,35.6z M272.4,103.6h-3.6
			l-15.9,25.2L237,103.6h-3.6l17.9,28.2V149h3.3v-17.2L272.4,103.6L272.4,103.6z M217,103.6h-18.9V149h3.3v-17.2h14.7l11,17.2h3.8
			l-11.3-17.7c1.6-0.3,3-0.8,4.4-1.6s2.5-1.8,3.4-3.1c0.9-1.2,1.7-2.6,2.2-4.2c0.5-1.6,0.8-3.2,0.8-4.9c0-1.7-0.3-3.4-1-5.1
			c-0.6-1.7-1.6-3.2-2.8-4.5c-1.2-1.4-2.5-2.5-4.2-3.3C220.6,104,218.9,103.6,217,103.6L217,103.6z M201.3,128.8v-22.3h15.5
			c1.4,0,2.7,0.3,3.9,1c1.2,0.6,2.3,1.4,3.2,2.4c0.9,1,1.7,2.2,2.2,3.6c0.6,1.3,0.8,2.7,0.8,4.2c0,1.4-0.2,2.8-0.7,4.2
			c-0.4,1.3-1.1,2.5-1.9,3.6c-0.9,1-1.9,1.9-3.1,2.5c-1.2,0.6-2.5,1-4,1H201.3L201.3,128.8z M186.9,103.6h-3.3v22.8
			c0,2.4-0.3,4.8-0.8,7.2c-0.5,2.4-1.3,4.5-2.5,6.4c-1.2,1.9-2.8,3.4-4.8,4.5c-2,1.2-4.5,1.7-7.6,1.7c-3,0-5.5-0.6-7.6-1.7
			c-2-1.2-3.6-2.6-4.9-4.5c-1.2-1.9-2-4-2.6-6.4c-0.5-2.4-0.7-4.8-0.7-7.4v-22.8H149v22.8c0,2.9,0.3,5.7,0.9,8.4
			c0.6,2.7,1.7,5.2,3.1,7.4c1.5,2.1,3.5,3.9,5.9,5.2c2.4,1.3,5.5,1.9,9.1,1.9c3.5,0,6.4-0.6,8.8-1.9c2.4-1.2,4.3-2.9,5.8-5
			c1.5-2.1,2.6-4.6,3.2-7.4c0.7-2.8,1-5.7,1-8.7V103.6L186.9,103.6z M140.2,103.6h-29.7V149h30.3v-2.9h-27v-18.9h23.1v-2.8h-23.1
			v-17.9h26.4V103.6L140.2,103.6z M76.6,103.6h-3.3V149h30.4v-2.9H76.6V103.6L76.6,103.6z M64.9,103.6H35.3V149h3.3v-21.6h22.3v-2.8
			H38.6v-18h26.3V103.6L64.9,103.6z"/>
	</g>
</g>
</svg>
