<svg width="256" height="126" viewBox="0 0 256 126" fill="none" xmlns="http://www.w3.org/2000/svg">
<path d="M26.648 31.784C25.304 32.872 23.816 33.72 22.184 34.328C20.584 34.936 18.872 35.24 17.048 35.24C14.68 35.24 12.52 34.744 10.568 33.752C8.616 32.76 6.936 31.464 5.528 29.864C4.12 28.264 3.032 26.424 2.264 24.344C1.496 22.264 1.112 20.136 1.112 17.96C1.112 15.688 1.512 13.512 2.312 11.432C3.144 9.352 4.264 7.512 5.672 5.912C7.112 4.312 8.808 3.048 10.76 2.12C12.712 1.16 14.824 0.679998 17.096 0.679998C19.464 0.679998 21.624 1.192 23.576 2.216C25.56 3.208 27.24 4.52 28.616 6.152C30.024 7.784 31.112 9.64 31.88 11.72C32.648 13.768 33.032 15.848 33.032 17.96C33.032 20.36 32.584 22.632 31.688 24.776C30.824 26.92 29.624 28.808 28.088 30.44L31.88 35H29.336L26.648 31.784ZM17.096 32.984C18.696 32.984 20.168 32.728 21.512 32.216C22.856 31.672 24.072 30.936 25.16 30.008L21.128 25.112H23.672L26.552 28.616C27.832 27.176 28.808 25.528 29.48 23.672C30.184 21.816 30.536 19.912 30.536 17.96C30.536 16.008 30.2 14.136 29.528 12.344C28.856 10.52 27.912 8.92 26.696 7.544C25.512 6.136 24.104 5.016 22.472 4.184C20.84 3.352 19.048 2.936 17.096 2.936C15.048 2.936 13.192 3.368 11.528 4.232C9.864 5.096 8.44 6.248 7.256 7.688C6.072 9.096 5.16 10.696 4.52 12.488C3.88 14.28 3.56 16.104 3.56 17.96C3.56 19.912 3.88 21.8 4.52 23.624C5.192 25.416 6.12 27.016 7.304 28.424C8.52 29.8 9.96 30.904 11.624 31.736C13.288 32.568 15.112 32.984 17.096 32.984ZM53.2378 32.984C55.5418 32.984 57.4458 32.552 58.9498 31.688C60.4858 30.824 61.6858 29.688 62.5498 28.28C63.4458 26.872 64.0698 25.272 64.4218 23.48C64.8058 21.688 64.9978 19.88 64.9978 18.056V0.919998H67.4458V18.056C67.4458 20.328 67.1898 22.504 66.6778 24.584C66.1978 26.664 65.3978 28.504 64.2778 30.104C63.1578 31.672 61.7018 32.92 59.9098 33.848C58.1178 34.776 55.9098 35.24 53.2858 35.24C50.5658 35.24 48.2938 34.76 46.4698 33.8C44.6458 32.808 43.1738 31.512 42.0538 29.912C40.9658 28.28 40.1818 26.44 39.7018 24.392C39.2538 22.344 39.0298 20.232 39.0298 18.056V0.919998H41.4778V18.056C41.4778 19.944 41.6538 21.784 42.0058 23.576C42.3898 25.368 43.0298 26.968 43.9258 28.376C44.8538 29.752 46.0698 30.872 47.5738 31.736C49.0778 32.568 50.9658 32.984 53.2378 32.984ZM98.543 32.792V35H75.839V0.919998H98.111V3.128H78.287V16.52H95.615V18.632H78.287V32.792H98.543ZM105.23 35V0.919998H107.678V32.792H128.03V35H105.23ZM154.148 31.784C152.804 32.872 151.316 33.72 149.684 34.328C148.084 34.936 146.372 35.24 144.548 35.24C142.18 35.24 140.02 34.744 138.068 33.752C136.116 32.76 134.436 31.464 133.028 29.864C131.62 28.264 130.532 26.424 129.764 24.344C128.996 22.264 128.612 20.136 128.612 17.96C128.612 15.688 129.012 13.512 129.812 11.432C130.644 9.352 131.764 7.512 133.172 5.912C134.612 4.312 136.308 3.048 138.26 2.12C140.212 1.16 142.324 0.679998 144.596 0.679998C146.964 0.679998 149.124 1.192 151.076 2.216C153.06 3.208 154.74 4.52 156.116 6.152C157.524 7.784 158.612 9.64 159.38 11.72C160.148 13.768 160.532 15.848 160.532 17.96C160.532 20.36 160.084 22.632 159.188 24.776C158.324 26.92 157.124 28.808 155.588 30.44L159.38 35H156.836L154.148 31.784ZM144.596 32.984C146.196 32.984 147.668 32.728 149.012 32.216C150.356 31.672 151.572 30.936 152.66 30.008L148.628 25.112H151.172L154.052 28.616C155.332 27.176 156.308 25.528 156.98 23.672C157.684 21.816 158.036 19.912 158.036 17.96C158.036 16.008 157.7 14.136 157.028 12.344C156.356 10.52 155.412 8.92 154.196 7.544C153.012 6.136 151.604 5.016 149.972 4.184C148.34 3.352 146.548 2.936 144.596 2.936C142.548 2.936 140.692 3.368 139.028 4.232C137.364 5.096 135.94 6.248 134.756 7.688C133.572 9.096 132.66 10.696 132.02 12.488C131.38 14.28 131.06 16.104 131.06 17.96C131.06 19.912 131.38 21.8 132.02 23.624C132.692 25.416 133.62 27.016 134.804 28.424C136.02 29.8 137.46 30.904 139.124 31.736C140.788 32.568 142.612 32.984 144.596 32.984ZM180.738 32.984C183.042 32.984 184.946 32.552 186.45 31.688C187.986 30.824 189.186 29.688 190.05 28.28C190.946 26.872 191.57 25.272 191.922 23.48C192.306 21.688 192.498 19.88 192.498 18.056V0.919998H194.946V18.056C194.946 20.328 194.69 22.504 194.178 24.584C193.698 26.664 192.898 28.504 191.778 30.104C190.658 31.672 189.202 32.92 187.41 33.848C185.618 34.776 183.41 35.24 180.786 35.24C178.066 35.24 175.794 34.76 173.97 33.8C172.146 32.808 170.674 31.512 169.554 29.912C168.466 28.28 167.682 26.44 167.202 24.392C166.754 22.344 166.53 20.232 166.53 18.056V0.919998H168.978V18.056C168.978 19.944 169.154 21.784 169.506 23.576C169.89 25.368 170.53 26.968 171.426 28.376C172.354 29.752 173.57 30.872 175.074 31.736C176.578 32.568 178.466 32.984 180.738 32.984ZM226.043 32.792V35H203.339V0.919998H225.611V3.128H205.787V16.52H223.115V18.632H205.787V32.792H226.043ZM251.851 6.584C249.643 4.12 246.523 2.888 242.491 2.888C239.163 2.888 236.731 3.528 235.195 4.808C233.691 6.056 232.939 7.752 232.939 9.896C232.939 10.984 233.131 11.896 233.515 12.632C233.899 13.336 234.491 13.944 235.291 14.456C236.123 14.968 237.163 15.4 238.411 15.752C239.659 16.104 241.163 16.472 242.923 16.856C244.747 17.24 246.395 17.672 247.867 18.152C249.371 18.6 250.635 19.176 251.659 19.88C252.715 20.584 253.515 21.448 254.059 22.472C254.635 23.496 254.923 24.76 254.923 26.264C254.923 27.768 254.619 29.08 254.01 30.2C253.435 31.32 252.603 32.264 251.515 33.032C250.459 33.768 249.179 34.328 247.675 34.712C246.203 35.096 244.555 35.288 242.731 35.288C237.419 35.288 232.923 33.592 229.243 30.2L230.539 28.232C231.979 29.736 233.739 30.936 235.819 31.832C237.899 32.696 240.235 33.128 242.827 33.128C245.803 33.128 248.123 32.584 249.787 31.496C251.483 30.408 252.331 28.76 252.331 26.552C252.331 25.432 252.107 24.488 251.659 23.72C251.211 22.92 250.539 22.232 249.643 21.656C248.779 21.08 247.675 20.584 246.331 20.168C244.987 19.752 243.419 19.352 241.627 18.968C239.803 18.584 238.187 18.184 236.779 17.768C235.403 17.32 234.235 16.776 233.275 16.136C232.347 15.464 231.643 14.664 231.163 13.736C230.683 12.808 230.443 11.64 230.443 10.232C230.443 8.696 230.731 7.336 231.307 6.152C231.915 4.968 232.747 3.976 233.803 3.176C234.859 2.344 236.123 1.72 237.595 1.304C239.067 0.887999 240.699 0.679998 242.491 0.679998C244.699 0.679998 246.667 1.016 248.395 1.688C250.123 2.328 251.691 3.32 253.099 4.664L251.851 6.584ZM1.112 62.72C1.112 60.672 1.464 58.64 2.168 56.624C2.904 54.576 3.96 52.752 5.336 51.152C6.712 49.552 8.392 48.256 10.376 47.264C12.392 46.24 14.68 45.728 17.24 45.728C20.28 45.728 22.872 46.432 25.016 47.84C27.16 49.216 28.76 50.992 29.816 53.168L27.8 54.32C27.192 53.136 26.472 52.144 25.64 51.344C24.84 50.544 23.96 49.904 23 49.424C22.072 48.912 21.096 48.544 20.072 48.32C19.048 48.096 18.04 47.984 17.048 47.984C14.872 47.984 12.952 48.432 11.288 49.328C9.624 50.192 8.216 51.328 7.064 52.736C5.912 54.144 5.032 55.744 4.424 57.536C3.848 59.296 3.56 61.072 3.56 62.864C3.56 64.88 3.912 66.8 4.616 68.624C5.32 70.448 6.28 72.064 7.496 73.472C8.712 74.848 10.152 75.952 11.816 76.784C13.48 77.616 15.272 78.032 17.192 78.032C18.216 78.032 19.272 77.904 20.36 77.648C21.448 77.392 22.488 76.992 23.48 76.448C24.472 75.904 25.4 75.216 26.264 74.384C27.128 73.52 27.848 72.512 28.424 71.36L30.536 72.368C29.96 73.648 29.176 74.784 28.184 75.776C27.192 76.768 26.088 77.6 24.872 78.272C23.656 78.944 22.36 79.456 20.984 79.808C19.64 80.128 18.312 80.288 17 80.288C14.664 80.288 12.52 79.776 10.568 78.752C8.648 77.728 6.984 76.4 5.576 74.768C4.168 73.104 3.064 71.232 2.264 69.152C1.496 67.04 1.112 64.896 1.112 62.72ZM36.6046 80V45.92H39.0526V77.792H59.4046V80H36.6046ZM64.4953 80V45.92H66.9433V80H64.4953ZM98.5899 77.792V80H75.8859V45.92H98.1579V48.128H78.3339V61.52H95.6619V63.632H78.3339V77.792H98.5899ZM107.725 50.528V80H105.277V45.92H107.148L131.053 75.92V45.92H133.501V80H131.245L107.725 50.528ZM166.21 48.128H153.73V80H151.282V48.128H138.802V45.92H166.21V48.128ZM191.335 51.584C189.127 49.12 186.007 47.888 181.975 47.888C178.647 47.888 176.215 48.528 174.679 49.808C173.175 51.056 172.423 52.752 172.423 54.896C172.423 55.984 172.615 56.896 172.999 57.632C173.383 58.336 173.975 58.944 174.775 59.456C175.607 59.968 176.647 60.4 177.895 60.752C179.143 61.104 180.647 61.472 182.407 61.856C184.231 62.24 185.879 62.672 187.351 63.152C188.855 63.6 190.119 64.176 191.143 64.88C192.199 65.584 192.999 66.448 193.543 67.472C194.119 68.496 194.407 69.76 194.407 71.264C194.407 72.768 194.103 74.08 193.495 75.2C192.919 76.32 192.087 77.264 190.999 78.032C189.943 78.768 188.663 79.328 187.159 79.712C185.687 80.096 184.039 80.288 182.215 80.288C176.903 80.288 172.407 78.592 168.727 75.2L170.023 73.232C171.463 74.736 173.223 75.936 175.303 76.832C177.383 77.696 179.719 78.128 182.311 78.128C185.287 78.128 187.607 77.584 189.271 76.496C190.967 75.408 191.815 73.76 191.815 71.552C191.815 70.432 191.591 69.488 191.143 68.72C190.695 67.92 190.023 67.232 189.127 66.656C188.263 66.08 187.159 65.584 185.815 65.168C184.471 64.752 182.903 64.352 181.111 63.968C179.287 63.584 177.671 63.184 176.263 62.768C174.887 62.32 173.719 61.776 172.759 61.136C171.831 60.464 171.127 59.664 170.647 58.736C170.167 57.808 169.927 56.64 169.927 55.232C169.927 53.696 170.215 52.336 170.791 51.152C171.399 49.968 172.231 48.976 173.287 48.176C174.343 47.344 175.607 46.72 177.079 46.304C178.551 45.888 180.183 45.68 181.975 45.68C184.183 45.68 186.151 46.016 187.879 46.688C189.607 47.328 191.175 48.32 192.583 49.664L191.335 51.584ZM23 98.936C22.68 98.584 22.216 98.216 21.608 97.832C21 97.416 20.28 97.032 19.448 96.68C18.648 96.328 17.752 96.04 16.76 95.816C15.8 95.592 14.808 95.48 13.784 95.48C11.512 95.48 9.832 95.896 8.744 96.728C7.688 97.56 7.16 98.712 7.16 100.184C7.16 101.016 7.32 101.704 7.64 102.248C7.992 102.76 8.52 103.224 9.224 103.64C9.928 104.024 10.808 104.376 11.864 104.696C12.92 104.984 14.152 105.304 15.56 105.656C17.288 106.072 18.84 106.536 20.216 107.048C21.624 107.56 22.808 108.184 23.768 108.92C24.728 109.656 25.464 110.568 25.976 111.656C26.52 112.712 26.792 114.008 26.792 115.544C26.792 117.272 26.456 118.76 25.784 120.008C25.144 121.256 24.248 122.28 23.096 123.08C21.976 123.848 20.664 124.424 19.16 124.808C17.656 125.16 16.04 125.336 14.312 125.336C11.72 125.336 9.208 124.952 6.776 124.184C4.376 123.384 2.2 122.232 0.248 120.728L2.696 116.12C3.112 116.536 3.704 117 4.472 117.512C5.272 118.024 6.184 118.504 7.208 118.952C8.264 119.368 9.4 119.736 10.616 120.056C11.832 120.344 13.096 120.488 14.408 120.488C16.52 120.488 18.152 120.12 19.304 119.384C20.456 118.648 21.032 117.56 21.032 116.12C21.032 115.256 20.808 114.536 20.36 113.96C19.944 113.384 19.336 112.888 18.536 112.472C17.736 112.024 16.76 111.624 15.608 111.272C14.456 110.92 13.144 110.552 11.672 110.168C9.976 109.72 8.488 109.256 7.208 108.776C5.96 108.264 4.92 107.656 4.088 106.952C3.256 106.248 2.616 105.432 2.168 104.504C1.752 103.544 1.544 102.392 1.544 101.048C1.544 99.384 1.864 97.912 2.504 96.632C3.144 95.32 4.008 94.232 5.096 93.368C6.216 92.472 7.528 91.8 9.032 91.352C10.536 90.904 12.168 90.68 13.928 90.68C16.232 90.68 18.36 91.048 20.312 91.784C22.264 92.52 23.976 93.432 25.448 94.52L23 98.936ZM41.6533 90.92H46.3573L59.7973 125H54.1333L50.5333 115.736H37.3813L33.8293 125H28.1173L41.6533 90.92ZM49.4773 111.752L44.0053 97.112L38.3413 111.752H49.4773ZM85.6449 95.672H74.3169V125H68.8929V95.672H57.5169V90.92H85.6449V95.672ZM90.215 125V90.92H95.591V125H90.215ZM123.453 98.936C123.133 98.584 122.669 98.216 122.061 97.832C121.453 97.416 120.733 97.032 119.901 96.68C119.101 96.328 118.205 96.04 117.213 95.816C116.253 95.592 115.261 95.48 114.237 95.48C111.965 95.48 110.285 95.896 109.197 96.728C108.141 97.56 107.613 98.712 107.613 100.184C107.613 101.016 107.773 101.704 108.093 102.248C108.445 102.76 108.973 103.224 109.677 103.64C110.381 104.024 111.261 104.376 112.317 104.696C113.373 104.984 114.605 105.304 116.013 105.656C117.741 106.072 119.293 106.536 120.669 107.048C122.077 107.56 123.261 108.184 124.221 108.92C125.181 109.656 125.917 110.568 126.429 111.656C126.973 112.712 127.245 114.008 127.245 115.544C127.245 117.272 126.909 118.76 126.237 120.008C125.597 121.256 124.701 122.28 123.549 123.08C122.429 123.848 121.117 124.424 119.613 124.808C118.109 125.16 116.493 125.336 114.765 125.336C112.173 125.336 109.661 124.952 107.229 124.184C104.829 123.384 102.653 122.232 100.701 120.728L103.149 116.12C103.565 116.536 104.157 117 104.925 117.512C105.725 118.024 106.637 118.504 107.661 118.952C108.717 119.368 109.853 119.736 111.069 120.056C112.285 120.344 113.549 120.488 114.861 120.488C116.973 120.488 118.605 120.12 119.757 119.384C120.909 118.648 121.485 117.56 121.485 116.12C121.485 115.256 121.261 114.536 120.813 113.96C120.397 113.384 119.789 112.888 118.989 112.472C118.189 112.024 117.213 111.624 116.061 111.272C114.909 110.92 113.597 110.552 112.125 110.168C110.429 109.72 108.941 109.256 107.661 108.776C106.413 108.264 105.373 107.656 104.541 106.952C103.709 106.248 103.069 105.432 102.621 104.504C102.205 103.544 101.997 102.392 101.997 101.048C101.997 99.384 102.317 97.912 102.957 96.632C103.597 95.32 104.461 94.232 105.549 93.368C106.669 92.472 107.981 91.8 109.485 91.352C110.989 90.904 112.621 90.68 114.381 90.68C116.685 90.68 118.813 91.048 120.765 91.784C122.717 92.52 124.429 93.432 125.901 94.52L123.453 98.936ZM132.637 125V90.92H155.341V95.672H138.013V105.848H152.509V110.312H138.013V125H132.637ZM166.716 90.92H171.42L184.86 125H179.196L175.596 115.736H162.444L158.892 125H153.18L166.716 90.92ZM174.54 111.752L169.068 97.112L163.404 111.752H174.54ZM189.074 125V90.92H194.45V125H189.074ZM227.161 95.672H215.833V125H210.409V95.672H199.033V90.92H227.161V95.672ZM251.891 98.936C251.571 98.584 251.107 98.216 250.499 97.832C249.891 97.416 249.171 97.032 248.339 96.68C247.539 96.328 246.643 96.04 245.651 95.816C244.691 95.592 243.699 95.48 242.675 95.48C240.403 95.48 238.723 95.896 237.635 96.728C236.579 97.56 236.051 98.712 236.051 100.184C236.051 101.016 236.211 101.704 236.531 102.248C236.883 102.76 237.411 103.224 238.115 103.64C238.819 104.024 239.699 104.376 240.755 104.696C241.811 104.984 243.043 105.304 244.451 105.656C246.179 106.072 247.731 106.536 249.107 107.048C250.515 107.56 251.699 108.184 252.659 108.92C253.619 109.656 254.355 110.568 254.867 111.656C255.411 112.712 255.683 114.008 255.683 115.544C255.683 117.272 255.347 118.76 254.675 120.008C254.035 121.256 253.139 122.28 251.987 123.08C250.867 123.848 249.555 124.424 248.051 124.808C246.547 125.16 244.931 125.336 243.203 125.336C240.611 125.336 238.099 124.952 235.667 124.184C233.267 123.384 231.091 122.232 229.139 120.728L231.587 116.12C232.003 116.536 232.595 117 233.363 117.512C234.163 118.024 235.075 118.504 236.099 118.952C237.155 119.368 238.291 119.736 239.507 120.056C240.723 120.344 241.987 120.488 243.299 120.488C245.411 120.488 247.043 120.12 248.195 119.384C249.347 118.648 249.923 117.56 249.923 116.12C249.923 115.256 249.699 114.536 249.251 113.96C248.835 113.384 248.227 112.888 247.427 112.472C246.627 112.024 245.651 111.624 244.499 111.272C243.347 110.92 242.035 110.552 240.563 110.168C238.867 109.72 237.379 109.256 236.099 108.776C234.851 108.264 233.811 107.656 232.979 106.952C232.147 106.248 231.507 105.432 231.059 104.504C230.643 103.544 230.435 102.392 230.435 101.048C230.435 99.384 230.755 97.912 231.395 96.632C232.035 95.32 232.899 94.232 233.987 93.368C235.107 92.472 236.419 91.8 237.923 91.352C239.427 90.904 241.059 90.68 242.819 90.68C245.123 90.68 247.251 91.048 249.203 91.784C251.155 92.52 252.867 93.432 254.339 94.52L251.891 98.936Z" fill="white"/>
</svg>
